<svg xmlns="http://www.w3.org/2000/svg" width="100" height="100" fill="none" viewBox="0 0 100 100">
    <g clip-path="url(#a)">
        <path fill="url(#b)"
            d="m19.795 62.136 61-20.37c-1.219-7.624-2.087-12.718-3.094-16.605-1.084-4.181-1.943-5.3-2.28-5.688a11.898 11.898 0 0 0-4.285-3.112c-.475-.203-1.806-.675-6.113-.416-4.556.275-10.537 1.206-20.01 2.706-9.468 1.5-15.446 2.466-19.862 3.61-4.178 1.084-5.3 1.947-5.687 2.284a11.943 11.943 0 0 0-3.11 4.284c-.203.476-.675 1.807-.415 6.116.275 4.556 1.206 10.54 2.706 20.013.419 2.656.797 5.03 1.15 7.178Z" />
        <path fill="url(#c)" fill-rule="evenodd"
            d="M2.977 57.437c-2.9-18.325-4.353-27.487-1.21-34.843a27.766 27.766 0 0 1 7.263-10c6.022-5.26 15.182-6.71 33.5-9.613C60.855.075 70.018-1.375 77.374 1.768a27.758 27.758 0 0 1 9.994 7.263c5.262 6.025 6.712 15.187 9.612 33.516 2.903 18.325 4.353 27.49 1.21 34.843a27.76 27.76 0 0 1-7.26 10c-6.022 5.263-15.184 6.713-33.506 9.616-18.319 2.903-27.481 4.353-34.834 1.21a27.757 27.757 0 0 1-9.994-7.263C7.333 84.928 5.88 75.765 2.977 57.437Zm32.316 32.544c4.906-.297 11.225-1.288 20.578-2.769 9.356-1.481 15.666-2.494 20.428-3.728 4.61-1.197 6.734-2.362 8.106-3.562a17.843 17.843 0 0 0 4.666-6.429c.719-1.675 1.172-4.056.884-8.812-.297-4.906-1.287-11.228-2.768-20.584-1.482-9.357-2.491-15.672-3.725-20.432-1.197-4.612-2.366-6.737-3.563-8.109a17.843 17.843 0 0 0-6.425-4.669c-1.675-.719-4.056-1.172-8.812-.884-4.907.297-11.222 1.287-20.575 2.769-9.357 1.484-15.67 2.493-20.429 3.728-4.612 1.197-6.734 2.365-8.106 3.562a17.85 17.85 0 0 0-4.669 6.428c-.715 1.675-1.168 4.057-.88 8.813.296 4.91 1.284 11.228 2.768 20.584 1.481 9.356 2.49 15.672 3.725 20.431 1.197 4.613 2.362 6.738 3.562 8.11a17.846 17.846 0 0 0 6.425 4.669c1.675.718 4.05 1.171 8.81.884Z"
            clip-rule="evenodd" />
    </g>
    <defs>
        <linearGradient id="b" x1="48.329" x2="48.329" y1="15.869" y2="62.136"
            gradientUnits="userSpaceOnUse">
            <stop offset=".27" stop-color="#38BDF8" />
            <stop offset=".94" stop-color="#216F92" />
        </linearGradient>
        <linearGradient id="c" x1="49.979" x2="49.979" y1="0" y2="99.984"
            gradientUnits="userSpaceOnUse">
            <stop offset=".27" stop-color="#38BDF8" />
            <stop offset=".94" stop-color="#216F92" />
        </linearGradient>
        <clipPath id="a">
            <path fill="#fff" d="M0 0h100v100H0z" />
        </clipPath>
    </defs>
</svg>