<svg xmlns="http://www.w3.org/2000/svg" width="100" height="100" fill="none" viewBox="0 0 100 100">
    <path fill="#F44250"
        d="M80 49.94a9.93 9.93 0 0 1-2.928 7.056A9.98 9.98 0 0 1 70 59.92a9.971 9.971 0 0 0-7.07 2.922A9.942 9.942 0 0 0 60 69.9a9.932 9.932 0 0 1-2.928 7.056A9.981 9.981 0 0 1 50 79.88a9.972 9.972 0 0 1-7.07-2.924A9.933 9.933 0 0 1 40 69.9a9.941 9.941 0 0 1 2.93-7.058A9.97 9.97 0 0 1 50 59.92a9.98 9.98 0 0 0 7.072-2.924A9.932 9.932 0 0 0 60 49.94c0-5.513-4.476-9.98-10-9.98a9.971 9.971 0 0 1-7.07-2.924A9.932 9.932 0 0 1 40 29.98a9.94 9.94 0 0 1 2.93-7.058A9.97 9.97 0 0 1 50 20c5.524 0 10 4.467 10 9.98a9.933 9.933 0 0 0 2.93 7.056A9.973 9.973 0 0 0 70 39.96c5.524 0 10 4.467 10 9.98Z" />
    <path fill="#fff"
        d="M40 49.94c0-5.512-4.477-9.98-10-9.98s-10 4.468-10 9.98c0 5.512 4.477 9.98 10 9.98s10-4.468 10-9.98ZM20 69.9c0-5.512-4.477-9.98-10-9.98S0 64.388 0 69.9c0 5.512 4.477 9.98 10 9.98s10-4.468 10-9.98Zm80 0c0-5.512-4.477-9.98-10-9.98s-10 4.468-10 9.98c0 5.512 4.477 9.98 10 9.98s10-4.468 10-9.98Z" />
</svg>