<svg xmlns="http://www.w3.org/2000/svg" width="100" height="100" fill="none" viewBox="0 0 100 100">
    <path fill="#58C4DC" d="M50.176 40.325a9.578 9.578 0 1 0 0 19.156 9.578 9.578 0 0 0 0-19.156Z" />
    <path fill="#58C4DC"
        d="M99.993 49.99c0-7.52-6.963-14.114-18.05-18.455a58.17 58.17 0 0 0 .377-2.893c1.093-10.805-1.51-18.604-7.327-21.963-6.508-3.758-15.701-1.03-24.996 6.408C40.7 5.65 31.507 2.921 25 6.68c-5.817 3.36-8.42 11.158-7.327 21.963.095.949.226 1.92.378 2.9-.925.353-1.831.727-2.702 1.119C5.45 37.11 0 43.27 0 49.99c0 7.519 6.963 14.114 18.05 18.454a54.195 54.195 0 0 0-.377 2.894C16.58 82.144 19.183 89.942 25 93.3c2 1.134 4.266 1.714 6.565 1.68 5.51 0 11.944-2.9 18.431-8.088 6.484 5.187 12.922 8.088 18.44 8.088A12.93 12.93 0 0 0 75 93.301c5.817-3.359 8.42-11.157 7.327-21.962-.096-.95-.23-1.916-.378-2.894C93.037 64.112 100 57.506 100 49.99M68.393 9.763a8.337 8.337 0 0 1 4.233 1.038c4.039 2.332 5.852 8.659 4.97 17.357-.06.593-.13 1.193-.215 1.796a84.145 84.145 0 0 0-14.11-2.96 84.406 84.406 0 0 0-9.63-10.752c5.513-4.263 10.688-6.479 14.748-6.479m-1.894 49.755a103.908 103.908 0 0 1-5.82 8.998c-3.55.364-7.115.546-10.682.543-3.566.003-7.13-.179-10.678-.543a103.611 103.611 0 0 1-5.803-8.998 102.365 102.365 0 0 1-4.857-9.528 102.351 102.351 0 0 1 4.857-9.527 104.914 104.914 0 0 1 5.785-8.967 101.7 101.7 0 0 1 10.7-.557c3.566-.002 7.13.18 10.678.543a105.27 105.27 0 0 1 5.806 8.98c1.782 3.09 3.404 6.27 4.857 9.528a103.256 103.256 0 0 1-4.857 9.528m7.284-3.529a74.779 74.779 0 0 1 2.752 9.351 73.94 73.94 0 0 1-9.44 2.276c1.213-1.83 2.39-3.734 3.528-5.713a121.418 121.418 0 0 0 3.174-5.9M43.298 73.608c2.194.134 4.434.211 6.702.211s4.522-.077 6.72-.211A74.533 74.533 0 0 1 50 80.665a74.087 74.087 0 0 1-6.702-7.057Zm-10.379-5.999a73.964 73.964 0 0 1-9.443-2.269 74.768 74.768 0 0 1 2.741-9.337 99.003 99.003 0 0 0 3.175 5.9 129.722 129.722 0 0 0 3.527 5.713m-6.702-23.642a74.83 74.83 0 0 1-2.734-9.302 74.935 74.935 0 0 1 9.419-2.283 110.595 110.595 0 0 0-3.528 5.688 115.88 115.88 0 0 0-3.175 5.897m30.5-17.605a110.066 110.066 0 0 0-6.72-.212c-2.267 0-4.501.071-6.703.212a74.1 74.1 0 0 1 6.703-7.057 74.104 74.104 0 0 1 6.72 7.057Zm13.899 11.708a103.805 103.805 0 0 0-3.546-5.716 73.948 73.948 0 0 1 9.465 2.28 75.367 75.367 0 0 1-2.741 9.336 99.801 99.801 0 0 0-3.175-5.896m-48.19-9.92c-.893-8.694.931-15.024 4.967-17.357a8.362 8.362 0 0 1 4.233-1.037c4.06 0 9.235 2.216 14.748 6.478a84.523 84.523 0 0 0-9.637 10.76 85.43 85.43 0 0 0-14.11 2.95c-.081-.604-.155-1.2-.212-1.793m-5.097 8.843c.543-.236 1.097-.47 1.661-.706a85.131 85.131 0 0 0 4.498 13.691 84.949 84.949 0 0 0-4.501 13.72C9.972 60.022 4.762 54.913 4.762 49.99c0-4.665 4.586-9.397 12.54-12.985Zm10.075 52.171c-4.036-2.332-5.86-8.663-4.967-17.357.056-.593.13-1.19.211-1.796a84.209 84.209 0 0 0 14.11 2.96 84.743 84.743 0 0 0 9.631 10.76c-7.687 5.938-14.71 7.896-18.975 5.433M77.593 71.82c.882 8.698-.931 15.025-4.97 17.357-4.262 2.47-11.289.505-18.972-5.434a84.713 84.713 0 0 0 9.627-10.759c4.78-.581 9.5-1.572 14.11-2.96.085.606.155 1.203.215 1.796m3.45-8.116A85.286 85.286 0 0 0 76.55 49.99a85.295 85.295 0 0 0 4.5-13.72c8.971 3.688 14.196 8.798 14.196 13.72 0 4.923-5.21 10.032-14.199 13.72" />
</svg>