<svg xmlns="http://www.w3.org/2000/svg" width="100" height="100" fill="none" viewBox="0 0 100 100">
    <path fill="#38BDF8" fill-rule="evenodd"
        d="M50.001 20C36.667 20 28.335 26.576 25 39.73c5-6.577 10.834-9.043 17.5-7.4 3.803.938 6.523 3.66 9.531 6.674 4.903 4.908 10.578 10.588 22.97 10.588 13.332 0 21.666-6.577 24.999-19.727-4.999 6.576-10.832 9.042-17.499 7.397-3.805-.938-6.525-3.66-9.532-6.672C68.066 25.678 62.393 20 50 20ZM25 49.592c-13.333 0-21.667 6.576-25 19.729 5-6.576 10.834-9.042 17.498-7.399 3.806.937 6.526 3.66 9.534 6.674C31.934 73.504 37.606 79.184 50 79.184c13.333 0 21.666-6.575 25-19.728-5 6.577-10.834 9.044-17.5 7.4-3.803-.94-6.523-3.662-9.531-6.674-4.903-4.908-10.578-10.59-22.97-10.59Z"
        clip-rule="evenodd" />
</svg>