<svg width="132" height="50" viewBox="0 0 132 50" fill="none" xmlns="http://www.w3.org/2000/svg">
<path d="M0 4.06645L9.73407 4L24.5495 29.5124L39.2488 4.00159L49 4.01174L24.5479 46L0 4.06645Z" fill="#41B883"/>
<path d="M131.973 11.3113C131.99 11.3779 132 11.4467 132 11.5158V22.2481C132 22.5285 131.851 22.7874 131.611 22.927L122.709 28.1131V38.3926C122.709 38.6724 122.562 38.9306 122.323 39.0715L103.74 49.8958C103.697 49.9202 103.65 49.9358 103.604 49.9525C103.587 49.9584 103.57 49.9691 103.552 49.974C103.423 50.0087 103.286 50.0087 103.155 49.974C103.135 49.9682 103.115 49.9564 103.095 49.9486C103.052 49.9329 103.008 49.9192 102.967 49.8958L84.3891 39.0715C84.1485 38.9319 84 38.6729 84 38.3926V6.1955C84 6.12508 84.0099 6.05666 84.0267 5.99014C84.0327 5.9676 84.0465 5.94707 84.0545 5.92463C84.0683 5.88346 84.0822 5.84148 84.103 5.80331C84.1178 5.77787 84.1396 5.75734 84.1564 5.73379C84.1792 5.70254 84.199 5.67028 84.2257 5.64283C84.2475 5.6204 84.2762 5.60377 84.3019 5.58413C84.3297 5.56069 84.3544 5.53525 84.3871 5.51671L93.6772 0.104582C93.9168 -0.0348608 94.2118 -0.0348608 94.4504 0.104582L103.741 5.51671H103.743C103.773 5.53625 103.8 5.56069 103.828 5.58323C103.852 5.60276 103.881 5.6204 103.903 5.64193C103.931 5.67028 103.949 5.70254 103.973 5.73379C103.989 5.75734 104.012 5.77787 104.025 5.80331C104.047 5.84238 104.059 5.88346 104.075 5.92463C104.083 5.94707 104.097 5.9676 104.102 5.99114C104.12 6.05776 104.13 6.12648 104.13 6.1955V26.3056L111.87 21.7952V11.5148C111.87 11.4462 111.88 11.3768 111.897 11.3113C111.904 11.2879 111.917 11.2672 111.925 11.2448C111.94 11.2037 111.954 11.1617 111.975 11.1235C111.989 11.098 112.011 11.0775 112.027 11.0541C112.051 11.0227 112.069 10.9905 112.097 10.9631C112.119 10.9406 112.147 10.9239 112.172 10.9044C112.201 10.8809 112.226 10.8555 112.257 10.8369H112.258L121.549 5.42476C121.788 5.28511 122.083 5.28511 122.323 5.42476L131.612 10.8369C131.645 10.8564 131.67 10.8809 131.699 10.9034C131.724 10.9229 131.752 10.9406 131.773 10.9621C131.801 10.9905 131.82 11.0227 131.844 11.0541C131.86 11.0775 131.882 11.098 131.895 11.1235C131.918 11.1617 131.931 11.2037 131.946 11.2448C131.954 11.2672 131.967 11.2879 131.973 11.3113ZM130.452 21.7952V12.8705L127.2 14.7642L122.709 17.3808V26.3056L130.452 21.7952ZM121.162 37.9397V29.0092L116.743 31.5621L104.129 38.8474V47.8621L121.162 37.9397ZM85.5484 7.55026V37.9397L102.579 47.8612V38.8484L93.6822 33.7532L93.6792 33.7512L93.6752 33.7493C93.6455 33.7317 93.6208 33.7062 93.5921 33.6847C93.5683 33.6652 93.5406 33.6496 93.5188 33.628L93.5168 33.6251C93.4921 33.6006 93.4743 33.5703 93.4535 33.5429C93.4337 33.5165 93.4109 33.494 93.3951 33.4666L93.3941 33.4636C93.3772 33.4344 93.3664 33.3991 93.3535 33.3659C93.3406 33.3365 93.3248 33.3092 93.3169 33.2778C93.307 33.2406 93.305 33.2006 93.301 33.1624C93.298 33.1331 93.2901 33.1037 93.2901 33.0743V33.0724V12.0606L88.7995 9.44306L85.5484 7.55026ZM94.0653 1.68724L86.3245 6.1955L94.0633 10.7039L101.802 6.1946L94.0633 1.68724H94.0653ZM98.0906 29.823L102.58 27.2073V7.55026L99.3301 9.44396L94.8385 12.0606V31.7177L98.0906 29.823ZM121.936 7.00741L114.196 11.5158L121.936 16.024L129.674 11.5148L121.936 7.00741ZM121.162 17.3808L116.67 14.7642L113.419 12.8705V21.7952L117.909 24.4108L121.162 26.3056V17.3808ZM103.353 37.4927L114.705 30.9351L120.379 27.6583L112.646 23.1529L103.742 28.3401L95.6265 33.0675L103.353 37.4927Z" fill="#FF2D20"/>
</svg>
