<svg xmlns="http://www.w3.org/2000/svg" viewBox="0 0 87 70" width="87" height="70"><style>.a{fill:#543cdf}</style><path fill-rule="evenodd" class="a" d="m4.8 69.1c0.6 0 2.6-0.5 4.5-1 8.4-2.3 19.3-3.4 25.4-2.5 4.4 0.6 6.2 0.2 5.3-1.3-1.3-1.8-10.5-2.9-18.3-2.1-3.8 0.4-3.8 0.5 0.2-1.5 3.5-1.7 12.1-6.7 12.9-7.5 2.1-2.5-4.9-3.1-8.1-0.8-1.4 1-4.8 2.9-6.4 3.8 6.5-8.5 8.5-10.9 6.7-12-2.9-1.9-5.1-0.4-11.6 7.9-3.1 3.9-5.4 6.3-9.1 9.4-7.2 6.3-7.6 8.2-1.5 7.6zm39.4-20.7c5.1-3.4 9.5-9.5 8.1-11.5-1.2-1.8-5.7 0.2-8.6 4-1.1 1.4-3 3.5-4.2 4.8-3.8 3.9-0.2 6 4.7 2.7zm-1.3-10.4c1.6-1.3 0.7-3.5-2.8-4.5-8.8-4.4-1.9-13.8 3.5-15.4 3.2-1 2.4-2.5-1.4-2.6-9.8-0.5-15.8 11-9.5 18.1 2.8 3.3 8.6 5.7 10.2 4.4zm21.9-4.1c2.3-1 6.8-4.8 7.5-6.2 1.5-3-3.9-3.5-7.1-0.7-1.9 1.6-5.9 5.2-6.4 5.8-1.7 1.5 3.2 2.5 6 1.1zm-8.9-1.8c4.1-3 0.9-14.1-4.3-15.2-3.2-0.6-3.9 0.6-2.3 4.5 1.1 2.7 1.5 5 1.5 8.9 0 2.1 3 3.2 5.1 1.8zm21.3-13.9c3.3 0.1 10.5-13.2 8.9-16.2-1.4-2.6-6.2-1.5-7.3 1.8-0.4 1.2-1.1 3-1.5 4.1-2.8 6-3.9 8.8-3.6 9.1 0.3 0.6 2.2 1.2 3.5 1.2z"></path></svg>