<svg xmlns="http://www.w3.org/2000/svg" width="98" height="102" viewBox="0 0 98 102">
<path d="M40.772 4.89791C44.3473 -1.57572 53.6527 -1.57572 57.228 4.89791V4.89791C59.6201 9.22916 64.9604 10.9643 69.4415 8.86633V8.86633C76.1391 5.73058 83.6673 11.2001 82.7547 18.5389V18.5389C82.1441 23.449 85.4446 27.9918 90.3031 28.9284V28.9284C97.5647 30.3283 100.44 39.1782 95.3883 44.579V44.579C92.0082 48.1924 92.0082 53.8076 95.3883 57.421V57.421C100.44 62.8218 97.5647 71.6717 90.3031 73.0716V73.0716C85.4446 74.0082 82.1441 78.551 82.7547 83.4611V83.4611C83.6673 90.7999 76.1391 96.2694 69.4415 93.1337V93.1337C64.9604 91.0357 59.6201 92.7708 57.228 97.1021V97.1021C53.6527 103.576 44.3473 103.576 40.772 97.1021V97.1021C38.3799 92.7708 33.0396 91.0357 28.5585 93.1337V93.1337C21.8609 96.2694 14.3327 90.7999 15.2453 83.4611V83.4611C15.8559 78.551 12.5554 74.0082 7.6969 73.0716V73.0716C0.435273 71.6717 -2.44023 62.8218 2.61172 57.421V57.421C5.99178 53.8076 5.99178 48.1924 2.61172 44.579V44.579C-2.44023 39.1782 0.435272 30.3283 7.6969 28.9284V28.9284C12.5554 27.9918 15.8559 23.449 15.2453 18.5389V18.5389C14.3327 11.2001 21.8609 5.73058 28.5585 8.86633V8.86633C33.0396 10.9643 38.3799 9.22916 40.772 4.89791V4.89791Z"/>
</svg>