<svg xmlns="http://www.w3.org/2000/svg" viewBox="0 0 2560 309.63"><defs><style>.cls-1{fill:#e2e2e2;}</style></defs><title>WhiteTreeline</title><g id="Layer_2" data-name="Layer 2"><g id="Boy_Scouts" data-name="Boy Scouts"><path class="cls-1" d="M2556.74,190.56l-4.6-3.75-1.18-1.06a16.47,16.47,0,0,1-2,3.58,8.5,8.5,0,0,1-2.69,1.47c-.3,3.91,5.12.7,4.84,4.94-.1,1.57,2.89,1.9,4.28,3.43a10.25,10.25,0,0,0,1.36,1.25l-.77,1.42-7.39.74,1.73-4.67-8.46-4.5-1.73-3.22c-5.44,5.12-9.91,4.14-14.1-2.11l15-2.85a41.78,41.78,0,0,1,1.81-6.2,52.68,52.68,0,0,1,3.85-6.15l-5.9-4.52-4.82,2.11-.86-4.5c-7.54,4.58-11.31-1-15.35-6.23l12,1.76,11.36-15-9.93-2.37-3.57,3.1a15.66,15.66,0,0,1-10.08-8.74l7.8,3,1.13-4.18,3.64,2.23c-1.1-3.63,3.15-2.15,3.92-4.68.64-2.11,3.05-3.68,4.85-5.68l-5.29-3.34-3.79,1.53-4.92-4.62c-1.6,1.22-2.8,2.66-4.3,3.1-1,.28-3.4-1.34-3.38-1.39,1.51-3.82-2.84-2.87-3.8-4.64l1.48-2.81,2.73,2.42,1.94-3.3,2.85,3.85,9.28-4.39-9-10.38-2.71.19,2.86-5.62L2521,96.58l6.35-5.14-2.94-4,2.24-5.18-1.12,0-.74-7.18-5.21,3.15-5.52,12.59-1.62-.3-1-14.22h7.78l-3.6-6.66,4.73-.49c-1.48-2.7-3.17-5.21.68-8.7l-7,2.54-1.88,5-1.17-.23c.45-2.43.73-4.91,1.4-7.28.75-2.62,1.86-5.13,2.06-8.28l-3,2.13-.92-7.54h-1.06l-.86,9.59-3.33-2.22c.24,5.24,4.64,9.5,2.6,15.62l-1.81-6.7h-5.12l2.28,12.25,2.6,2.12-3.53.82c-1.39,2.18,3.13,4.79-.92,7l-6.83-5c1.33,5.47.76,10.53,4.13,14.27l-3.09,3.36c.43.73.59,1.33.86,1.38,3.09.66,5.84,1.55,7.83,4.48.79,1.16,3.12,1.29,4.92,1.95-1,4.29-4.48,4.32-11.93-.95l-.6,3.4-5.88-5-6.49,5.3,5.49,3.53-.37,3.76,3-1.15,1.74,3.81,3.52-.59-.64,3.74,10.43-3.9.66.55-6.62,7.74-4.33-2.44-10.93,3c-.32,6,4.94,8.28,8.47,12.62l-6.2.38.77,6.5-3.21-1.8-6.73,2.82c3.85,3.36,7.66,6.14,10.78,9.56,2.64,2.89,4.47,6.52,6.81,10.05-3.25,2-5.78,3.61-9.72,2.05-1.63-.65-4.34,1.4-7.5,2.57l10.17,13.3-11.8,1,9.8,11.89,3.37-2.83,1.7,4.71c-1.15,1.06-2.07,2.45-3.34,3a73.61,73.61,0,0,0-12.82,6.88v-3.54l-5.42,2.74a14.54,14.54,0,0,0,5.42,3.07v2.74c-2,.7-3.6,3.2-6.17,1.75-.69-.39-1.36-.84-2-1.21l2.9-6.19c-.85-.17-1.81-.67-2.53-.44a49.25,49.25,0,0,0-5.21,2.29c-.92-2.09.49-4.6-2.17-5.22,3.36-1,.9-4.83,3.07-6.48.3-.23.13-1.06.2-1.76h-4.76l-2.12,3.88c-.22-.83-.53-1.31-.41-1.62.82-2.13,1.73-4.23,2.7-6.56h-2.77l-1.78-6-1.38,5.06-3.13-.81,4,8.71L2447.7,196l-.86,4.68,2.84.83-2.22,3.4-6-.29-1.14,9.66,3.15,1.66.54,1.48-2,1.06,1.77,3c-1.38.07-2.46.47-3,.09a76.33,76.33,0,0,0-15.67-8.85c-1.27-.52-2.18-1.91-3.34-3l1.7-4.71,3.37,2.83,9.8-11.89-11.8-1,10.17-13.3c-3.17-1.17-5.87-3.22-7.5-2.57-3.94,1.56-6.47-.09-9.72-2.05,2.34-3.53,4.18-7.16,6.81-10.05,3.11-3.42,6.92-6.2,10.78-9.56l-6.73-2.82-3.21,1.8.77-6.5-6.2-.38c3.53-4.34,8.79-6.6,8.47-12.62l-10.93-3-4.33,2.44-6.62-7.74.66-.55,10.43,3.9-.64-3.74,3.52.59,1.74-3.81,3,1.15-.37-3.76,5.49-3.53-6.49-5.3-5.88,5-.6-3.4c-7.45,5.27-10.94,5.24-11.93,1,1.8-.66,4.13-.79,4.92-1.95,2-2.93,4.74-3.82,7.83-4.48.27-.06.42-.66.86-1.38L2416,105c3.37-3.74,2.8-8.8,4.13-14.27l-6.83,5c-4-2.23.47-4.84-.92-7l-3.53-.82,2.6-2.12,2.28-12.25h-5.12l-1.81,6.7c-2-6.12,2.36-10.37,2.6-15.62l-3.33,2.22-.86-9.59h-1.06l-.92,7.54-3-2.13c.19,3.15,1.31,5.67,2.06,8.28.68,2.37,1,4.85,1.4,7.28l-1.17.23-1.88-5-7-2.54c3.85,3.48,2.16,6,.68,8.7l4.73.49-3.6,6.66h7.78l-1,14.22-1.62.3-5.52-12.59-5.21-3.15-.74,7.18-1.12,0,2.24,5.18-2.94,4,6.35,5.14L2390,110l2.87,5.62-2.71-.19-9,10.38,9.28,4.39,2.85-3.85,1.94,3.3,2.73-2.42,1.48,2.81c-1,1.77-5.32.83-3.8,4.64,0,.05-2.43,1.67-3.38,1.39-1.49-.44-2.7-1.87-4.3-3.1l-4.92,4.62-3.79-1.53-5.29,3.34c1.8,2,4.21,3.57,4.85,5.68.77,2.53,5,1,3.92,4.68l3.64-2.23,1.13,4.18,7.8-3a15.65,15.65,0,0,1-10.08,8.74l-3.57-3.1-9.93,2.37,11.36,15,12-1.76c-4,5.23-7.81,10.81-15.35,6.23l-.86,4.5-4.82-2.11-5.9,4.52a52.74,52.74,0,0,1,3.85,6.15,41.85,41.85,0,0,1,1.81,6.2l15,2.85c-4.19,6.25-8.66,7.23-14.1,2.11l-1.73,3.22-8.46,4.5,1.73,4.67-7.39-.74-2.33-4.28c1.79-1.51,4.76-2.21,4-5.56l-10.89-2.64,12.76-7.78-5.61-3-17.17,3.43-.27-1,11.5-5.24-1.84-2.84c3.63-1.64,2.35-4.75,3-7.76l-8,3.21,1.44-13-5.26-.76,1.57-4.45-3.36.31-1.31-6.71-2.65,5.73-3.78-.91,4.75,9c-3-2.61-3-2.61-8.61-2.87l1.26,7-2.84,2.34-1.42-4.51-5.08,4.34,2.59,6-6.26-.37-.83,4.31,3.67.7c-3.6,4.72-7.91-1.46-11.61,1.61v-4.39l-5.09-.65c2.33-3.27,7.51-3.44,7.34-8.26-9.43-2.29-10.66-2.36-15.23-.89l-5-3.81c1.87-.81,3.3-.9,4.26-.27,2.93,1.93,5.6.23,7.78-.93,3.4-1.81,6.29-4.58,9.5-7l-6.12-4c-1.53,4.91-5.82,1.46-8.69,2.91-3.39,1.7-6.45,2.36-9.64-.07l13.7-5.68-1.9-2.34,2.81-10-7.95,3.9.32-5.21-1.72-.59,3.25-9.9-6-1.21,1.2-4.94-3.24,1.35-.92-8.47-2,6.34-2.93-.38,4.24,10.42-7.81-5-1.16,5.72,3.77.47-3,4.36,7.13.71-.54,10.34c-2.06-2-3.68-2.95-4.29-4.33-1.64-3.69-3.77-6.56-8.27-7l-1.25,11.66,5.09,3.07-3.58,2.08,2,3L2261.52,165c2.3,1,3.56,1.61,4.88,2.07s2.85.8,4.59,1.28l2.11-2.35a20.17,20.17,0,0,0,3.3,1.39,16.85,16.85,0,0,0,3.42,0l-5.94,5.49-5.72-2.53-3.57,2.38-9.92.94,1.81-2.6c-4.23,2.6-6.25-2.82-9.92.72v-6.15h-5.49c3.18-4.26,8.74-6.07,8.13-11.67l-10.56-3.11-4.46,2.64-6.52-6.84a11.73,11.73,0,0,1,6.36,1.46c2.47,1.22,3.76.16,4.54-2.12,2.82,1.51,3.37-2.35,4.51-2.3,3.79.16,2.47-2.16,2.48-3.59l5.8-2.78-6.77-5.34-4.21,3.75a8.57,8.57,0,0,0-5.13-.19c-2,.46-4,1.38-6,1.53-1.53.11-3.72-.12-3.21-1.69l13.83-7.84-3-3.34c2.31-3.82,3.8-8,3.2-12.89l-7.91,5.3,1.07-8h-3.56c4.42-4.28,2.78-9.59,4.88-13.82l-5.21-.4-1.87,6.47-1.32-.37,4-14.72-3.94,3.7V79l-1.13-.17-1.57,7.74-3.21-2.37c1.34,5.09,2.52,9.56,3.65,14,0,.12-.49.38-.85.65L2221,94.29l-6.95-1.43c5.58,3.45,1.35,5,1,7.45l4.45.91-2.72,4.7c1.41.87,2.4,1.86,3.52,2,.79.13,1.77-.82,3.64-1.79l-.8,13.88-1.83.37-5.3-11.34-6.3-3.67c.48,1.66,1.21,2.87,1,3.92-.21,1.24-1.22,2.33-1.87,3.48l2,5-3,3.33,6.65,5.16-3.85,2.75,2.19,3.6c-3.49,4-7.93,6.45-10.48,11.29l8.61,4,3.18-3.78,1.45,3.52,2.57-2.33,2.22,2c-4.76-.32-3.64,4.06-5.46,6.83l-6.42-3.57-5,4.25c-3.54-2.31-5.9-.26-8.61,1.83l9,9.52,2.67-2,1.83,3.25,7.36-1.86c-2.31,4.61-5.66,6.53-9.89,7.56l-4.51-3.8-.88,1.8-8.76,1.76c3.57,2,3.82,5,7.22,6.32,2.24.84,3.15,5.25,4.33,7.47l14.05-1.9c-5.45,4.92-9.25,10-16.4,6.19l-1.16,3.9-4.87-1.45-.26.18q0-1.1-.1-2.24a51.34,51.34,0,0,1-5,1.87,49.58,49.58,0,0,1-5.2.87l-.59-1.28,3.18-3.29c-3.71-3,2.32-5.59.88-7.92l-12.61-1.63c2-1.1,2.68-1.47,3.36-1.9s1.4-1,1.8-1.26c.38-.45.65-.62.64-.77-.6-6.71,6.79-9,8.14-15.13-1.53-2.51-3.12-5.49-7.47-4.1L2180,152.7c-2.81.85-5.63,2.65-8,2.15s-5.95-1.61-6-5.27l13.93-3.06,5.8-13.29L2180.3,129l-5,1.87-.65-4.1c-.35,0-.83-.27-1-.12-2.72,2.27-5.52,2.16-8.17.06-2.4-1.89-4.62-4-6.92-6l.68-1.07,12.6,2.08c2.26-5.58,6.32-10.34,10.77-15-2.58-3.24-7.16-.69-9.59-3.62l-3.81,3.47c-4.52-1.55-8-3.91-9.92-9.25l7.48,2.95,1.49-3.86,4.07,2.62-.59-4.22,2.19,1.11,6.33-8.34L2175.2,84l-3.84,1.73,1.24-1.4-5.2-4.39-6.64,5.35-2.71-6.06-3.37-1.26,1.68-2.83,3.3,2,1.62-3.78L2164.5,79c1.21-4.49,6.23-2.33,8.16-6.58l-8.29-10.18-2.7.31,2.82-5.91-3.87-3.42,6.79-5.55-3.08-3.85,2.25-6.06c-4-1.51-1.36-4.49-1.27-7.91-1.54,1.46-2.58,3.2-3.4,3.1-3-.34-3.32,1.48-3.74,3.57-.79,4-2.39,7.54-6.1,10.29V31.32l3.17,1.44,3.33-2.16-3.32-5.76,5.45-.66c-1.81-2.74-4.07-5.15-1.6-8.28L2154,17.83l-2.1,5.63c-1.55-6.25,2.28-11.3,3.47-17.72l-3.7,2.46L2150.36,0h-.89V11.32l-1.4.82-1.58-4-1.14.89L2149,23.45l-1.44.38L2146.2,18l-5.37-.35,2.27,13,3,2.82L2142,34c-.94,2.41,3.66,5-.7,7.42l-6.71-5.5c1.79,5.83-.26,11.15,4.31,14.87l-4,4.75a17.79,17.79,0,0,1,11.23,7.6l2.85-1.59.29,3c-5.74,2-5.74,2-12-2.56l-1.61,2.52a34.31,34.31,0,0,1-2.77-2.33A23.2,23.2,0,0,1,2131,59.7L2124.06,66l5.85,3.3L2129,73l3.2-.51,2,4.2,3.94-2.21-1.09,3.65c4.88,1.46,7.75-2.75,12.68-4.19L2141,84.34l-5.16-3.69c-.8,1.25-5,2.9-9.78,3.93-.66,6.21,4.72,9.06,8.91,13.7h-6.67l.4,7.76c-2.45-4.73-4.81,0-6.91-1.53-1.85-1.36-3.67-2.75-5.92-4.43l2-3.32-3.61-2.36,5.2-3.34L2118,77.93l-5,2.18-6,9.8-1.47-.47-.76-10.33,7.46-.81L2109,73.79l3.91-.66-.94-5.75c-3.69-1-5.16,2.65-8.12,4.94l4.31-11.5-3.29.46L2103.86,56l-.77,0-.8,7.37L2099,62.36l1.55,5.58-6.17.91,3,10.94-1.49.59.32,6.16-8-4.72c1.17,4.25,1,7.86,3.81,10.67l-2.95,3.18,13.91,6.29c-4.25,3.83-8,.91-11.76-1l-1.7,2-5.4-3.69-5.57,3.73c-.48,3.83,5,.44,4.76,4.54-.06,1.34,3.17,2.83,4.43,3.2,2.89.85,5.93,3.83,9.46.94,1.37-1.12,3.37-1.48,5.49-1.68l-8.26,7.15c-5.16-4.67-9.64.51-14.66-.26,0,5.52,4.62,6.66,7.82,9.89l-5.69.66.67,5.09c-3.55-3.19-5.79.33-9.07,1.13,3.22,2.15,6.65,4,9.58,6.51,2.49,2.11,4.41,4.91,6.68,7.52-4.86,4.36-10.51.08-15.27,3.76v-4.24l-5.39,2-5.65,8.43-1.55-.29-1.14-8.93,7.54-.7-2.92-4.18,3.62-.46-.78-5.42-8,4.38,4.32-10.12-3.47,1.12-.83-4.84-.85-.08-1.27,6-2.51.42,2.84,8.33-1,.42-1.81-4.22h-5.07c.6,2.25,1.12,4.2,1.63,6.16.34,1.33,1,2.69.9,4-.14,1.63-.94,3.21-1.6,5.28l-6.33-3.41c.2,4.59.71,6.38,2.53,8.89l-2.23,2.81,14.51,6c-8,1.85-13.91-1-20.33-2.57l-5.29,3.07c3.07,2.24,6,4.71,9.23,6.65,3.94,2.35,8.22,2.24,12.49-.44l.41,1.52-6,4.45c-5-3.87-9.71.22-14.88,0,.3,4.86,4.81,5.23,7.36,8.24l-4.85.93.31,4.21c-3.18-2.57-5.45-.1-8.92.55,2.52,1.91,4.34,4,6.63,4.87,4,1.55,6.68,4.23,9,8-4.26,4.16-10.28-.16-14.84,3.46l.82,2.75c-4.88,3-4.88,3-8.31-.22,3.65-1.93,3.87-5.64,4.9-9.23-4.95.46-9.79,1.55-15.34-2l8.58-2.53-1.13-4.16c4.81-.93,6.76-4.91,9.49-8.72-2.18-2.45-3.78-5.4-7.73-3.68l-2.41-4.16c-5.63,4.42-10.13,3.47-13.85-2.29l14.14-2.71,5.93-11.73-5.39-3.67-4.87,1.45-1.16-3.9c-7.15,3.85-11-1.27-16.4-6.19l14.05,1.9c1.18-2.21,2.08-6.62,4.33-7.46,3.4-1.28,3.65-4.3,7.22-6.32l-8.76-1.76-.88-1.8-4.51,3.8c-4.23-1-7.59-2.94-9.89-7.56l7.36,1.86,1.83-3.25,2.67,2,9-9.52c-2.71-2.09-5.07-4.14-8.61-1.83l-5-4.25-6.42,3.57c-1.83-2.76-.7-7.15-5.46-6.83l2.22-2,2.57,2.33,1.45-3.52,3.18,3.78,8.61-4c-2.55-4.84-7-7.32-10.48-11.29l2.18-3.6-3.85-2.75,6.65-5.16-3-3.33,2-5c-.65-1.14-1.66-2.24-1.87-3.48-.18-1.05.55-2.26,1-3.92l-6.3,3.67-5.3,11.34-1.83-.37-.8-13.88c1.87,1,2.84,1.92,3.64,1.79,1.12-.19,2.11-1.18,3.52-2l-2.72-4.69,4.45-.91c-.35-2.42-4.58-4,1-7.45l-6.95,1.43-2.05,4.55c-.37-.27-.88-.53-.85-.65,1.13-4.48,2.31-8.94,3.65-14l-3.21,2.37-1.57-7.74-1.13.17V55.58l-3.94-3.7,4,14.72-1.32.37-1.87-6.47-5.21.4c2.11,4.23.46,9.54,4.88,13.82h-3.55l1.07,8-7.91-5.3c-.6,4.88.9,9.07,3.2,12.89l-3,3.34,13.83,7.84c.51,1.58-1.68,1.81-3.21,1.69-2-.15-4-1.07-6-1.53a8.58,8.58,0,0,0-5.13.19l-4.22-3.75-6.77,5.34,5.8,2.78c0,1.43-1.31,3.75,2.48,3.59,1.13,0,1.69,3.81,4.51,2.3.78,2.27,2.07,3.34,4.54,2.12a11.72,11.72,0,0,1,6.36-1.46l-6.51,6.84-4.46-2.64-10.56,3.11c-.62,5.6,4.95,7.42,8.13,11.67h-5.49v6.15c-3.67-3.54-5.69,1.88-9.92-.72l1.81,2.6-9.92-.94-3.57-2.38L1941,139l-5.94-5.49a16.89,16.89,0,0,0,3.43,0,20.22,20.22,0,0,0,3.3-1.39l2.11,2.35c1.73-.47,3.19-.8,4.59-1.28s2.58-1.08,4.88-2.07l-10.92-7.71,2-3-3.58-2.08,5.09-3.07-1.25-11.66c-4.5.42-6.63,3.29-8.27,7-.61,1.38-2.23,2.31-4.29,4.33l-.54-10.34,7.13-.71-3-4.36,3.77-.47-1.16-5.72-7.81,5,4.24-10.42-2.93.38-2-6.34-.92,8.47-3.24-1.35,1.2,4.94-6,1.21,3.25,9.9-1.72.59.32,5.21-7.95-3.9,2.81,10-1.9,2.34,13.7,5.67c-3.18,2.43-6.25,1.78-9.64.07-2.87-1.44-7.16,2-8.69-2.91l-6.12,4c3.21,2.44,6.1,5.21,9.5,7,2.18,1.16,4.85,2.86,7.78.93,1-.63,2.39-.54,4.26.27l-5,3.81c-4.57-1.47-5.8-1.4-15.23.89-.17,4.82,5,5,7.34,8.26l-5.09.65v4.39c-3.7-3.07-8,3.11-11.61-1.61l3.67-.7-.83-4.31-6.26.37,2.59-6L1891.1,136l-1.42,4.51-2.84-2.34,1.26-7c-5.59.26-5.59.26-8.61,2.87l4.75-9-3.78.91-2.65-5.73-1.31,6.71-3.36-.31,1.57,4.45-5.26.76,1.44,13-8-3.22c.65,3-.62,6.13,3,7.76l-1.84,2.84,11.5,5.24-.27,1-17.17-3.43-5.61,3,12.76,7.78-10.89,2.64c-.79,3.36,2.18,4.05,4,5.56l-2.33,4.28-7.39.74,1.73-4.67-8.46-4.51-1.73-3.22c-5.44,5.12-9.91,4.15-14.1-2.11l15-2.85a41.77,41.77,0,0,1,1.81-6.2,52.56,52.56,0,0,1,3.85-6.15l-5.9-4.52-4.82,2.11-.86-4.5c-7.54,4.58-11.31-1-15.35-6.23l12,1.76,11.36-15-9.93-2.37-3.56,3.1a15.66,15.66,0,0,1-10.08-8.74l7.8,3,1.13-4.18,3.64,2.23c-1.1-3.63,3.15-2.15,3.92-4.68.64-2.11,3.05-3.68,4.85-5.68l-5.29-3.34-3.79,1.53-4.92-4.62c-1.6,1.22-2.8,2.66-4.3,3.1-1,.28-3.4-1.34-3.38-1.39,1.51-3.82-2.84-2.87-3.8-4.64l1.48-2.81,2.73,2.42,1.94-3.3,2.85,3.85,9.28-4.39-9-10.38-2.71.19,2.86-5.62-3.8-3.18,6.35-5.14-2.94-4,2.24-5.18-1.13,0-.74-7.18-5.21,3.15-5.52,12.59-1.62-.3-1-14.22h7.78l-3.6-6.66,4.73-.49c-1.48-2.7-3.17-5.21.68-8.7l-7,2.54-1.88,5-1.17-.23c.45-2.43.73-4.91,1.4-7.28.75-2.62,1.86-5.13,2.06-8.28l-3,2.13-.92-7.54h-1.06l-.86,9.59-3.33-2.22c.24,5.24,4.64,9.5,2.6,15.62l-1.81-6.7h-5.12l2.28,12.25,2.6,2.12-3.53.82c-1.39,2.18,3.13,4.79-.92,7l-6.83-5c1.33,5.47.76,10.53,4.13,14.27l-3.09,3.36c.43.73.59,1.33.86,1.38,3.09.66,5.84,1.55,7.82,4.48.79,1.17,3.12,1.29,4.92,1.95-1,4.29-4.48,4.32-11.93-.95l-.6,3.4-5.88-5-6.49,5.3,5.49,3.53-.37,3.76,3-1.15,1.74,3.81,3.52-.59L1797.2,98l10.43-3.9.66.55-6.62,7.74-4.33-2.44-10.93,3c-.32,6,4.94,8.28,8.47,12.62l-6.2.38.77,6.5-3.21-1.8-6.74,2.82c3.85,3.36,7.66,6.14,10.78,9.56,2.64,2.89,4.47,6.52,6.81,10.05-3.25,2-5.78,3.61-9.72,2.05-1.63-.65-4.34,1.4-7.5,2.57l10.17,13.3-11.8,1,9.8,11.89,3.37-2.83,1.7,4.71c-1.15,1.06-2.07,2.45-3.34,3a76.37,76.37,0,0,0-15.68,8.85c-.52.37-1.59,0-3-.09l1.77-3-3.09-1.66,4.81-2.53-1.14-9.66-6,.29-2.22-3.4,2.84-.83-.86-4.68-7.69,3.73,4-8.71-3.13.81-1.38-5.06-1.78,6h-2.77c1,2.34,1.88,4.43,2.7,6.56.12.31-.18.79-.41,1.62l-2.12-3.88h-1.78l-2.93-2.28-5,1.87-.65-4.1c-.35,0-.83-.27-1-.12-2.72,2.27-5.52,2.16-8.17.06-2.4-1.89-4.62-4-6.92-6l.68-1.07,12.6,2.08c2.26-5.58,6.32-10.34,10.77-15-2.59-3.24-7.16-.68-9.59-3.62l-3.81,3.47c-4.52-1.55-8-3.91-9.92-9.25l7.48,2.95,1.49-3.86,4.07,2.62-.59-4.22,2.19,1.11,6.33-8.34-5.08-3.52-3.84,1.73,1.24-1.4-5.2-4.39-6.64,5.35-2.71-6.06-3.37-1.26,1.68-2.83,3.3,2,1.62-3.78,3.21,5.62c1.21-4.49,6.23-2.33,8.16-6.58L1734,94l-2.7.31,2.82-5.91L1730.24,85l6.79-5.55-3.08-3.85,2.25-6.06c-4-1.51-1.36-4.49-1.27-7.91-1.54,1.46-2.58,3.2-3.4,3.1-3-.34-3.32,1.48-3.74,3.57-.79,4-2.39,7.54-6.1,10.29V63.16l3.17,1.44,3.33-2.16-3.32-5.76,5.45-.66c-1.81-2.74-4.07-5.15-1.6-8.28l-5.08,1.93-2.1,5.63c-1.55-6.25,2.28-11.3,3.47-17.72L1721.3,40,1720,31.83h-.89V43.16l-1.4.82-1.58-4-1.14.88,3.64,14.42-1.44.38-1.36-5.82-5.37-.35,2.27,13,3,2.82-4.12.49c-.94,2.41,3.66,5-.7,7.42l-6.71-5.5c1.79,5.83-.26,11.15,4.31,14.87l-4,4.75a17.79,17.79,0,0,1,11.23,7.6l2.85-1.59.29,3c-5.74,2-5.74,2-12-2.56l-1.61,2.52a34.23,34.23,0,0,1-2.77-2.33,23.2,23.2,0,0,1-1.87-2.47l-6.93,6.26,5.85,3.3-.9,3.78,3.2-.51,2,4.2,3.94-2.2-1.09,3.65c4.88,1.46,7.75-2.75,12.68-4.19l-8.72,10.36-5.16-3.69c-.8,1.25-5,2.9-9.78,3.93-.66,6.21,4.72,9.06,8.91,13.7h-6.67l.4,7.76c-2.45-4.73-4.81,0-6.91-1.53-1.85-1.36-3.67-2.75-5.92-4.43l2-3.32-3.61-2.36,5.2-3.34-1.44-13.13-5,2.18-6,9.8-1.47-.47-.76-10.33,7.46-.81-3.25-4.51,3.91-.66-.94-5.75c-3.69-1-5.16,2.65-8.12,4.94l4.31-11.5-3.29.46-1.06-5.25-.77,0-.8,7.37-3.34-1.05,1.55,5.58-6.17.91,3,10.94-1.49.59.32,6.16-8-4.72c1.17,4.25,1,7.86,3.81,10.67l-2.95,3.18,13.91,6.29c-4.25,3.83-8,.91-11.76-1l-1.7,2-5.4-3.69-5.57,3.73c-.48,3.83,5,.44,4.76,4.54-.06,1.34,3.17,2.83,4.43,3.2,2.89.85,5.93,3.83,9.46.94,1.37-1.12,3.37-1.48,5.49-1.68l-8.26,7.15c-5.16-4.67-9.64.51-14.66-.26,0,5.52,4.62,6.66,7.82,9.89l-5.69.66.67,5.09c-3.55-3.19-5.79.33-9.07,1.13,3.22,2.14,6.65,4,9.58,6.51,2.49,2.11,4.41,4.91,6.68,7.52-4.86,4.36-10.51.08-15.27,3.76V179l-5.39,2-5.65,8.43-1.55-.28-1.14-8.93,7.54-.7-2.92-4.18,3.62-.46-.78-5.42-8,4.38,4.32-10.12-3.47,1.12-.83-4.84-.85-.08-1.27,6-2.51.42,2.84,8.33-1,.42-1.81-4.22H1620c.6,2.25,1.12,4.2,1.63,6.16.34,1.33,1,2.69.9,4-.14,1.63-.94,3.21-1.6,5.28l-6.33-3.41c.2,4.59.71,6.38,2.53,8.9l-2.23,2.81,14.51,6c-8,1.85-13.91-1-20.33-2.56l-5.29,3.07c3.07,2.24,6,4.71,9.23,6.65,3.94,2.35,8.22,2.24,12.49-.44l.41,1.52-6,4.45c-5-3.87-9.71.22-14.88,0,.3,4.86,4.81,5.23,7.36,8.24l-4.85.93.31,4.21c-3.18-2.57-5.45-.1-8.92.55,2.52,1.91,4.34,4,6.63,4.87,4,1.55,6.68,4.23,9,8-4.26,4.16-10.28-.16-14.84,3.46l.82,2.75c-4.88,3-4.88,3-8.31-.22,3.65-1.93,3.87-5.64,4.9-9.23-4.95.46-9.79,1.55-15.34-2l8.58-2.53-1.13-4.16c4.81-.93,6.76-4.91,9.49-8.72-2.18-2.45-3.78-5.4-7.73-3.68l-2.41-4.16c-5.63,4.42-10.13,3.47-13.85-2.29l14.14-2.71,5.93-11.73-5.39-3.67-4.87,1.45-1.16-3.9c-7.15,3.85-11-1.27-16.4-6.19l14.05,1.9c1.18-2.21,2.08-6.62,4.33-7.47,3.4-1.28,3.65-4.3,7.22-6.32l-8.76-1.76-.88-1.8-4.51,3.8c-4.23-1-7.59-2.94-9.89-7.56l7.36,1.86,1.83-3.25,2.67,2,9-9.52c-2.71-2.09-5.07-4.14-8.61-1.83l-5-4.25-6.42,3.57c-1.83-2.76-.7-7.15-5.46-6.83l2.22-2,2.57,2.33,1.45-3.52,3.18,3.78,8.61-4c-2.55-4.84-7-7.32-10.48-11.29l2.19-3.6-3.85-2.75,6.65-5.16-3-3.33,2-5c-.65-1.14-1.66-2.24-1.87-3.48-.18-1.05.55-2.26,1-3.92l-6.3,3.67-5.3,11.34-1.83-.37-.8-13.87c1.87,1,2.85,1.92,3.64,1.79,1.12-.19,2.11-1.18,3.52-2l-2.72-4.7,4.45-.91c-.35-2.42-4.58-4,1-7.45l-6.95,1.43-2.05,4.55c-.37-.27-.88-.53-.85-.65,1.13-4.48,2.31-8.94,3.65-14L1561,84.4l-1.57-7.74-1.13.17V87.41l-3.94-3.7,4,14.72-1.32.37-1.87-6.47-5.21.4c2.11,4.23.46,9.54,4.88,13.82h-3.55l1.07,8-7.91-5.3c-.6,4.88.9,9.07,3.2,12.89l-3,3.34,13.83,7.84c.51,1.58-1.68,1.81-3.21,1.7-2-.15-4-1.07-6-1.53a8.57,8.57,0,0,0-5.13.19l-4.22-3.75-6.77,5.34,5.8,2.78c0,1.43-1.31,3.75,2.48,3.59,1.13,0,1.69,3.81,4.51,2.3.78,2.27,2.07,3.34,4.54,2.12a11.74,11.74,0,0,1,6.36-1.46l-6.52,6.84-4.46-2.64-10.56,3.11c-.62,5.6,4.95,7.42,8.13,11.68H1538v6.15c-3.67-3.54-5.69,1.88-9.92-.72l1.81,2.6-9.92-.94-3.57-2.38-5.72,2.53-5.94-5.49a16.93,16.93,0,0,0,3.43,0,20.32,20.32,0,0,0,3.3-1.39l2.11,2.35c1.73-.47,3.19-.79,4.59-1.28s2.58-1.08,4.88-2.07l-10.92-7.71,2-3-3.58-2.08,5.09-3.07-1.25-11.66c-4.5.42-6.63,3.29-8.27,7-.61,1.38-2.23,2.31-4.29,4.33l-.54-10.34,7.13-.71-3-4.36,3.77-.47-1.16-5.72-7.81,5,4.24-10.42-2.93.38-2-6.34-.92,8.47-3.24-1.35,1.2,4.94-6,1.21,3.25,9.9-1.72.59.32,5.21-7.95-3.9,2.81,10-1.9,2.34,13.7,5.67c-3.18,2.43-6.25,1.78-9.64.07-2.87-1.44-7.16,2-8.69-2.91l-6.12,4c3.21,2.44,6.1,5.21,9.5,7,2.18,1.16,4.85,2.86,7.78.94,1-.63,2.39-.54,4.26.27l-5,3.81c-4.57-1.47-5.8-1.4-15.23.89-.17,4.82,5,5,7.34,8.26l-5.09.65v4.39c-3.7-3.07-8,3.11-11.61-1.61l3.67-.7-.83-4.31-6.26.37,2.59-6-5.08-4.35-1.42,4.51-2.84-2.34,1.26-7c-5.59.26-5.59.26-8.61,2.87l4.75-9-3.78.91-2.65-5.73-1.31,6.71-3.36-.31,1.57,4.45-5.26.76,1.44,13-8-3.21c.65,3-.62,6.13,3,7.76l-1.84,2.84,11.5,5.25-.27,1-17.17-3.43-5.61,3,12.76,7.78L1424,200.15c-.79,3.36,2.18,4,4,5.56l-2.33,4.28-7.39.74,1.73-4.67-8.46-4.5-1.73-3.22c-5.44,5.12-9.91,4.15-14.1-2.11l15-2.85a41.9,41.9,0,0,1,1.81-6.2,52.7,52.7,0,0,1,3.85-6.15l-5.9-4.52-4.82,2.11-.86-4.5c-7.54,4.58-11.31-1-15.35-6.23l12,1.75,11.36-15-9.93-2.37-3.56,3.1a15.66,15.66,0,0,1-10.08-8.74l7.8,3,1.13-4.18,3.64,2.23c-1.1-3.63,3.15-2.15,3.92-4.68.64-2.11,3.05-3.68,4.85-5.68l-5.29-3.34-3.79,1.53-4.92-4.62c-1.6,1.22-2.8,2.66-4.3,3.1-1,.28-3.4-1.34-3.38-1.39,1.51-3.82-2.84-2.87-3.8-4.64l1.48-2.81,2.73,2.42,1.94-3.3,2.85,3.85,9.28-4.39-9-10.38-2.71.19,2.86-5.62-3.8-3.18L1397,99.6l-2.94-4,2.24-5.18-1.13,0-.74-7.18-5.21,3.15L1383.75,99l-1.62-.3-1-14.22h7.78l-3.6-6.66,4.73-.49c-1.48-2.7-3.17-5.21.68-8.7l-7,2.54-1.87,5-1.17-.23c.45-2.43.73-4.91,1.4-7.28.75-2.62,1.86-5.13,2.06-8.28l-3,2.13-.92-7.54h-1.06l-.86,9.59-3.33-2.22c.24,5.24,4.64,9.5,2.6,15.62l-1.81-6.7h-5.12L1373,83.57l2.6,2.12-3.53.82c-1.39,2.18,3.13,4.79-.92,7l-6.83-5c1.33,5.47.76,10.53,4.13,14.27l-3.09,3.36c.43.73.59,1.33.86,1.38,3.09.66,5.84,1.55,7.82,4.48.79,1.17,3.12,1.29,4.92,1.95-1,4.29-4.48,4.32-11.93-.95l-.6,3.4-5.88-5-6.49,5.3,5.49,3.53-.37,3.76,3-1.15,1.74,3.81,3.52-.59-.64,3.74,10.43-3.9.66.55-6.62,7.74L1367,131.8l-10.93,3c-.32,6,4.94,8.28,8.47,12.62l-6.2.38.77,6.5-3.21-1.8-6.74,2.82c3.86,3.36,7.66,6.14,10.78,9.56,2.64,2.89,4.47,6.52,6.81,10.05-3.25,2-5.78,3.61-9.72,2.05-1.63-.65-4.34,1.4-7.5,2.57l10.17,13.3-11.8,1,9.8,11.89,3.37-2.83,1.7,4.71c-1.15,1.06-2.07,2.45-3.34,3a76.33,76.33,0,0,0-15.67,8.84c-.52.37-1.59,0-3-.09l1.77-3-3.09-1.66,4.81-2.53-1.14-9.66-6,.29-2.22-3.4,2.84-.83-.86-4.68-7.69,3.73,4-8.71-3.13.81-1.38-5.06-1.78,6h-2.77c1,2.34,1.88,4.43,2.7,6.56.12.31-.18.79-.41,1.63l-2.12-3.88h-4.77c.06.7-.1,1.54.2,1.76,2.17,1.65-.29,5.45,3.07,6.48-2.66.61-1.25,3.12-2.17,5.22a49.55,49.55,0,0,0-5.21-2.29c-.72-.23-1.68.27-2.53.45l2.9,6.19c-.6.37-1.26.82-2,1.21-3.14,1.78-4.83-2.37-7.58-1.89-2.31.41-4.39,3.08-7.09.6a6.65,6.65,0,0,1,.28-1.8,29.21,29.21,0,0,1,1.56-2.68c4.27,2.46,7.51,1.93,12.08-1.8l-10.36-5.25,1.69-2.59L1301.3,197l5-2.71-1.55-9.3-4.77,1.1-6.34,7.64-1.18-.56-.54-6.18,6.35-2.42-1.7-3,3.06-.87-1.33-3.1c-3.3-1.9-4.6,1.43-7.42,2.16l3.58-6.85c-1.5-1.93-2.43-4.24-4-4.9-2.08-.85-4.7-.4-8.05-.55l-4-2.92-6,2.84-4.91-6.18.6-1.66,3.1,2,1.83-2.75,2.64,3,9.71-3.46-11.15-9.91,2.14-3.41-3.66-2.36,4.54-3.55c0-3.14,0-5,0-6.76a15.2,15.2,0,0,0,.1-2.77c-.29-1.64-.81-3.24-1.22-4.83l-4.88,2.15-5.56,10.51L1264,137l-1-11.87h7.65l-3.45-5.49,3.88-.54-.62-6.49c-3.6.22-5.81,2.68-7.07,6.36l-1.21-.68,4.34-12.83-3.47,1-.71-5.65-1-.09-.87,8.09-3.33-2.1,3.42,12-1.25.42-1.51-4.89h-5.11l1.94,10,2.81,1.58-3.47,1.22.33,6.71-8.32-5.31,3.46,12.32-2.64,3.63c4,.71,7.31,1.53,9.74,4.46.76.91,2.82.74,4.27,1.06-2.77,3.92-4.28,3.88-11.54-.32l-2.26,1.89-4.6-3.75-1.18-1.06a16.47,16.47,0,0,1-2,3.58,8.51,8.51,0,0,1-2.69,1.47c-.3,3.92,5.12.7,4.84,4.94-.1,1.57,2.89,1.9,4.28,3.43,2.08,2.29,5.46,4.08,9,1.41.91-.69,2.28-.77,4.16-.1l-6.22,5.66-4-2.16-11,2.5c0,5.33,4.81,6.91,8,10.47l-5.66.72.48,4-9.06,1.35a28.9,28.9,0,0,0,10,8.85c2.84,1.49,4.44,5.34,7,8.66-2.48.78-4.85,2.41-6.39,1.83-3.75-1.4-6.61.71-9.91,1.29,1.31,5,4.61,8.22,9,11.56l-9.81.9c-1.09,4.59-5.22.41-7,3l-1.84-3.2c-6.27,3.14-10.52-.39-15.46-4.87l13.16,1.28c2.33-4.12,6.54-7.36,11.29-11.1L1221.1,200l-3.78,2.68-7.65-3.58c3.61-.76,6.48-2.66,9.89-3.23,3.16-.53,5.8-4.11,9.05-6.65-2.39-1.76-4.25-2.91-7.42-2.4-2,.32-4.32-1.64-6.57-2.61l-5.69,2.48-4.85-5.56.91-1.55,2.94,1.74,1.75-3.22,2.57,3.85,9.52-3.65-10.84-8.7,1.86-3.14-3.49-2.3,6-4.09-2.59-2.91c3.11-2.76-.44-6.17.47-9.14l-5.94.84-2.45-4.66,3.12-1.32-1.32-5.2c-3-.49-5.34.89-6.24,5.73-2-6.05,2.62-8.95,2.92-13.47l-3.36,1.66-1.25-5.92-1.09.13-.62,7.54-3.45-1.8,3.91,11.26-1.25.44-1.9-5-5.13.28,3,10-1.79,7.2-7.18-4.06c1.06,4,.16,7.9,3.54,10.54l-2.71,3.08,13.61,6.28c-3.44,3-6.4,1.14-9.87.16-3.06-.86-6.66.19-8.68-2.81l-6.27,4c.88.61,1.9,1.87,2.66,1.73,3-.54,1.83,5.27,5.43,3.34.13,3.7,5,1.36,5.62,4.38l8.27-2.28c.4-.11.81-.17,2.77-.57l-8.14,7c-5.07-3.83-9.85-.09-14.9.05,1.12,4.53,1.12,4.53,7.68,9.48-1.37.23-2.18.37-3,.49s-1.62.21-2.56.33l.56,4.78c-3.23-2.56-5.53.63-8.86.79,2,1.8,3.72,4.15,6,5.28a21.16,21.16,0,0,1,9.84,9.83,12.62,12.62,0,0,1-7.64,1.82c-2.47-.25-5,.32-8.1.57l2.06,4.83c-2.38,3.25-5.72-.81-8.71,1.55-2.74,2.17-5.91-.38-9.5-2.61,7.07-1.78,14.25-1.49,18.67-8.55-1.67-.52-3.82-2-5.25-1.49-4.54,1.62-6.15-1.93-9.83-4.26,2.13-.59,3.23-.82,4.28-1.2s2.23-1,4.27-1.86L1153.84,199l1.77-2.64-3.1-2,5-2.83-1.46-11-5.47,1.6c-1.8,2.46-2.19,6.64-7.06,7.89l-.7-8.67,6.43-.34c-1.58-3.42,2.3-5.8.21-9.67l-7.29,3.88,4.13-9.59-3,.55-1.63-4.73c-.51.3-1,.44-1,.63-.2,2.1-.34,4.21-.48,6.23h-2.41l2.55,7.64-.93.39-2-3.85h-5.25l3.48,9.55-1.86.5.65,5-7.74-3.44c-.11,3.34.26,6.3,3,8.53l-2.35,2.77,13.24,5.27c-3.07,2.31-5.95,1.52-9.24.36-2.9-1-6.15-1.07-9.22-2.54V206c.58.4,1.16.79,1.74,1.16a5.52,5.52,0,0,0-2.13.51l-2.41-4.16c-5.63,4.42-10.13,3.47-13.85-2.29l14.14-2.71,5.93-11.73-5.39-3.67-4.87,1.45-1.16-3.9c-7.15,3.85-11-1.27-16.4-6.19l14.05,1.9c1.18-2.21,2.08-6.62,4.33-7.46,3.4-1.28,3.65-4.3,7.22-6.33l-8.76-1.76-.88-1.8-4.51,3.8c-4.23-1-7.59-2.94-9.89-7.56l7.36,1.86,1.83-3.25,2.67,2,9-9.52c-2.71-2.09-5.07-4.14-8.61-1.83l-5-4.25-6.42,3.57c-1.83-2.76-.7-7.15-5.46-6.83l2.22-2,2.57,2.33,1.45-3.52,3.18,3.78,8.61-4c-2.55-4.84-7-7.32-10.48-11.29l2.19-3.6-3.85-2.75,6.65-5.16-3-3.33,2-5c-.65-1.14-1.66-2.24-1.87-3.48-.18-1,.55-2.26,1-3.92l-6.3,3.67-5.3,11.34-1.83-.37-.8-13.87c1.87,1,2.85,1.92,3.64,1.79,1.12-.19,2.11-1.18,3.52-2l-2.72-4.69,4.45-.91c-.35-2.42-4.58-4,1-7.45L1094.14,84l-2.05,4.55c-.37-.27-.88-.53-.85-.65,1.13-4.48,2.31-8.94,3.65-14l-3.21,2.37-1.57-7.74-1.13.17V79.26l-3.94-3.7,4,14.72-1.32.37-1.87-6.47-5.21.4c2.11,4.23.46,9.54,4.88,13.82H1082l1.07,8-7.91-5.3c-.6,4.88.9,9.07,3.2,12.89l-3,3.34,13.83,7.84c.51,1.58-1.68,1.81-3.21,1.7-2-.15-4-1.07-6-1.53a8.57,8.57,0,0,0-5.13.19l-4.21-3.75-6.77,5.34,5.8,2.78c0,1.43-1.31,3.75,2.48,3.59,1.13,0,1.69,3.81,4.51,2.3.78,2.27,2.07,3.34,4.54,2.12a11.74,11.74,0,0,1,6.36-1.46L1081,143.3l-4.46-2.64L1066,143.77c-.62,5.6,4.95,7.42,8.13,11.68h-5.49v6.15c-3.67-3.54-5.69,1.88-9.92-.72l1.81,2.6-9.92-.94-3.57-2.38-5.72,2.53-5.94-5.49a16.85,16.85,0,0,0,3.43,0,20.25,20.25,0,0,0,3.3-1.39l2.11,2.35c1.73-.47,3.19-.8,4.59-1.28s2.58-1.08,4.88-2.07l-10.92-7.71,2-3-3.58-2.08,5.09-3.07L1045,127.29c-4.5.42-6.63,3.29-8.27,7-.61,1.38-2.23,2.31-4.29,4.33l-.54-10.34,7.13-.71-3-4.36,3.77-.47L1038.7,117l-7.81,5,4.24-10.42-2.93.38-2-6.34-.92,8.47-3.24-1.35,1.2,4.94-6,1.21,3.25,9.9-1.72.59.32,5.21-7.95-3.9,2.81,10-1.9,2.34,13.7,5.68c-3.18,2.43-6.25,1.78-9.64.07-2.87-1.44-7.16,2-8.69-2.91l-6.12,4c3.21,2.44,6.1,5.21,9.5,7,2.18,1.16,4.85,2.86,7.78.94,1-.63,2.39-.54,4.26.27l-5,3.81c-4.57-1.47-5.8-1.4-15.23.89-.17,4.82,5,5,7.34,8.26l-5.09.64v4.39c-3.7-3.07-8,3.11-11.61-1.61l3.67-.7-.83-4.3-6.26.37,2.59-6-5.08-4.34L990,164.15l-2.84-2.34,1.26-7c-5.59.26-5.59.26-8.61,2.87l4.75-9-3.78.91-2.65-5.73-1.31,6.71-3.36-.31,1.57,4.45-5.26.76,1.44,13-8-3.22c.65,3-.62,6.13,3,7.76l-1.84,2.84,11.5,5.24-.27,1-17.17-3.43-5.61,3,12.76,7.78L954.67,192c-.79,3.36,2.18,4.05,4,5.56l-2.33,4.28-7.39.74,1.73-4.67-8.46-4.5-1.73-3.22c-5.44,5.12-9.91,4.14-14.1-2.11l15-2.85a41.8,41.8,0,0,1,1.81-6.2,52.73,52.73,0,0,1,3.85-6.15l-5.9-4.52-4.82,2.11-.86-4.5c-7.54,4.58-11.31-1-15.35-6.23l12,1.76,11.36-15-9.93-2.37-3.57,3.1a15.66,15.66,0,0,1-10.08-8.74l7.8,3,1.13-4.18,3.64,2.23c-1.1-3.63,3.15-2.15,3.92-4.68.64-2.11,3.05-3.68,4.85-5.68l-5.29-3.34-3.79,1.53-4.92-4.62c-1.6,1.22-2.8,2.66-4.3,3.1-1,.28-3.4-1.34-3.38-1.39,1.51-3.82-2.84-2.87-3.8-4.64l1.48-2.81,2.73,2.42,1.94-3.3,2.85,3.85,9.28-4.39-9-10.38-2.71.19,2.86-5.62-3.8-3.18,6.35-5.14-2.94-4L927,82.28l-1.12,0-.74-7.18-5.21,3.15-5.52,12.59-1.62-.3-1-14.22h7.78L916,69.71l4.73-.49c-1.48-2.7-3.17-5.21.68-8.7l-7,2.54-1.88,5-1.17-.23c.45-2.43.73-4.91,1.4-7.28.75-2.62,1.86-5.13,2.06-8.28l-3,2.13L911,46.88h-1.06l-.86,9.59-3.33-2.22c.24,5.24,4.64,9.5,2.6,15.62l-1.81-6.7H901.4l2.28,12.25,2.6,2.12-3.53.82c-1.39,2.18,3.13,4.79-.92,7l-6.83-5c1.33,5.47.76,10.53,4.13,14.27l-3.09,3.36c.43.73.59,1.33.86,1.38,3.09.66,5.84,1.55,7.83,4.48.79,1.16,3.12,1.29,4.92,1.95-1,4.29-4.48,4.32-11.93-.95l-.6,3.4-5.88-5-6.49,5.3,5.49,3.53-.37,3.76,3-1.15,1.74,3.81,3.52-.59-.64,3.74,10.43-3.9.66.55L902,126.09l-4.33-2.44-10.93,3c-.32,6,4.94,8.28,8.47,12.62l-6.2.38.77,6.5-3.21-1.8-6.73,2.82c3.85,3.36,7.66,6.14,10.78,9.56,2.64,2.89,4.47,6.52,6.81,10.05-3.25,2-5.78,3.61-9.72,2.05-1.63-.65-4.34,1.4-7.5,2.57l10.17,13.3-11.8,1,9.8,11.89,3.37-2.83,1.7,4.71c-1.15,1.06-2.06,2.45-3.34,3a73.62,73.62,0,0,0-12.82,6.88v-3.54l-5.42,2.74a14.54,14.54,0,0,0,5.42,3.07v2.74c-2,.7-3.6,3.2-6.17,1.75-.69-.39-1.36-.84-2-1.21l2.9-6.19c-.85-.17-1.81-.67-2.53-.44a49.26,49.26,0,0,0-5.21,2.29c-.93-2.09.49-4.6-2.17-5.22,3.36-1,.9-4.83,3.07-6.48.3-.23.13-1.06.2-1.76h-4.76l-2.12,3.88c-.22-.83-.53-1.31-.41-1.62.82-2.13,1.73-4.23,2.7-6.56H858l-1.78-6-1.38,5.06-3.13-.81,4,8.71L848,196l-.86,4.68,2.84.83-2.22,3.4-6-.29-1.14,9.66,4.81,2.53-3.09,1.67,1.77,3c-1.38.07-2.46.47-3,.09a76.32,76.32,0,0,0-15.68-8.85c-1.27-.52-2.18-1.91-3.34-3l1.7-4.71,3.37,2.83L837,196l-11.8-1,10.17-13.3c-3.17-1.17-5.87-3.22-7.5-2.57-3.94,1.56-6.47-.09-9.72-2.05,2.34-3.53,4.18-7.16,6.81-10.05,3.11-3.42,6.92-6.2,10.78-9.56L829,154.58l-3.21,1.8.77-6.5-6.2-.38c3.53-4.34,8.79-6.6,8.47-12.62l-10.93-3-4.33,2.44-6.62-7.74.66-.55L818,132l-.64-3.74,3.52.59,1.74-3.81,3,1.15-.37-3.76,5.49-3.53-6.49-5.3-5.88,5-.6-3.4c-7.45,5.27-10.94,5.24-11.94,1,1.8-.66,4.13-.79,4.92-1.95,2-2.93,4.74-3.82,7.82-4.48.27-.06.42-.66.86-1.38L816.37,105c3.37-3.74,2.8-8.8,4.13-14.27l-6.83,5c-4-2.23.47-4.84-.92-7l-3.53-.82,2.6-2.12,2.28-12.25H809l-1.81,6.7c-2-6.12,2.36-10.37,2.6-15.62l-3.33,2.22-.86-9.59h-1.06l-.92,7.54-3-2.13c.19,3.15,1.31,5.67,2.06,8.28.68,2.37,1,4.85,1.4,7.28l-1.17.23-1.88-5-7-2.54c3.85,3.48,2.16,6,.68,8.7l4.73.49-3.6,6.66h7.78l-1,14.22-1.62.3-5.52-12.59-5.21-3.15-.74,7.18-1.12,0,2.24,5.18-2.94,4,6.35,5.14L790.38,110l2.86,5.62-2.71-.19-9,10.38,9.28,4.39,2.85-3.85,1.94,3.3,2.73-2.42,1.48,2.81c-1,1.77-5.32.83-3.8,4.64,0,.05-2.43,1.67-3.38,1.39-1.49-.44-2.7-1.87-4.3-3.1l-4.92,4.62-3.79-1.53-5.29,3.34c1.8,2,4.21,3.57,4.85,5.68.77,2.53,5,1,3.92,4.68l3.64-2.23,1.13,4.18,7.8-3a15.66,15.66,0,0,1-10.08,8.74l-3.57-3.1-9.93,2.37,11.36,15,12-1.76c-4,5.23-7.81,10.81-15.35,6.23l-.86,4.5-4.82-2.11-5.9,4.52a52.7,52.7,0,0,1,3.85,6.15,41.85,41.85,0,0,1,1.81,6.2l15,2.85c-4.19,6.25-8.66,7.23-14.1,2.11l-1.73,3.22-8.46,4.5,1.73,4.67-7.39-.74-2.33-4.28c1.79-1.51,4.76-2.21,4-5.56L750,199.64l12.76-7.78-5.61-3-17.17,3.43-.27-1,11.5-5.24-1.84-2.84c3.63-1.64,2.35-4.75,3-7.76l-8,3.21,1.44-13-5.26-.76,1.57-4.45-3.36.31-1.31-6.71-2.65,5.73L731,159l4.75,9c-3-2.61-3-2.61-8.61-2.87l1.26,7-2.84,2.34-1.42-4.51-5.08,4.34,2.59,6-6.26-.37-.83,4.31,3.67.7c-3.6,4.72-7.91-1.46-11.61,1.61v-4.39l-5.09-.65c2.33-3.27,7.51-3.44,7.34-8.26-9.43-2.29-10.66-2.36-15.23-.89l-5-3.81c1.87-.81,3.3-.9,4.26-.27,2.93,1.93,5.6.23,7.78-.93,3.4-1.81,6.29-4.58,9.5-7l-6.12-4c-1.53,4.91-5.82,1.46-8.69,2.91-3.39,1.7-6.45,2.36-9.64-.07l13.7-5.68-1.9-2.34,2.81-10-7.95,3.9.32-5.21-1.72-.59,3.25-9.9-6-1.21,1.2-4.94-3.24,1.35-.92-8.47-2,6.34-2.93-.38,4.24,10.42-7.81-5L675.65,133l3.77.47-3,4.36,7.13.71L683,148.88c-2.06-2-3.68-2.95-4.29-4.33-1.64-3.69-3.77-6.56-8.27-7l-1.25,11.66,5.09,3.07-3.58,2.08,2,3L661.85,165c2.3,1,3.56,1.61,4.88,2.07s2.85.8,4.59,1.28l2.11-2.35a20.18,20.18,0,0,0,3.3,1.39,16.85,16.85,0,0,0,3.43,0L674.2,173l-5.72-2.53-3.57,2.38-9.92.94,1.81-2.6c-4.23,2.6-6.25-2.82-9.92.72v-6.15H641.4c3.18-4.26,8.74-6.07,8.13-11.67L639,150.94l-4.46,2.64L628,146.74a11.73,11.73,0,0,1,6.36,1.46c2.47,1.22,3.76.16,4.54-2.12,2.82,1.51,3.37-2.35,4.51-2.3,3.79.16,2.47-2.16,2.48-3.59l5.8-2.78-6.77-5.34-4.22,3.75a8.57,8.57,0,0,0-5.13-.19c-2,.46-4,1.38-6,1.53-1.53.11-3.72-.12-3.21-1.69l13.83-7.84-3-3.34c2.3-3.82,3.8-8,3.2-12.89l-7.91,5.3,1.07-8H630c4.42-4.28,2.77-9.59,4.88-13.82l-5.21-.4-1.87,6.47-1.32-.37,4-14.72-3.94,3.7V79l-1.13-.17-1.57,7.74-3.21-2.37c1.34,5.09,2.52,9.56,3.65,14,0,.12-.49.38-.85.65l-2.05-4.55-6.95-1.43c5.58,3.45,1.35,5,1,7.45l4.45.91-2.72,4.7c1.41.87,2.4,1.86,3.52,2,.79.13,1.77-.82,3.64-1.79l-.8,13.88-1.83.37-5.3-11.34-6.3-3.67c.48,1.66,1.21,2.87,1,3.92-.21,1.24-1.22,2.33-1.87,3.48l2,5-3,3.33,6.65,5.16L611.12,129l2.19,3.6c-3.49,4-7.93,6.45-10.48,11.29l8.61,4,3.18-3.78,1.45,3.52,2.57-2.33,2.22,2c-4.76-.32-3.64,4.06-5.46,6.83L609,150.52l-5,4.25c-3.54-2.31-5.9-.26-8.61,1.83l9,9.52,2.67-2,1.83,3.25,7.36-1.86c-2.31,4.61-5.66,6.53-9.89,7.56l-4.51-3.8-.88,1.8-8.76,1.76c3.57,2,3.82,5,7.22,6.32,2.24.84,3.15,5.25,4.33,7.47l14.05-1.9c-5.45,4.92-9.25,10-16.4,6.19l-1.16,3.9-4.86-1.45-.26.18q0-1.1-.1-2.24a51.44,51.44,0,0,1-5,1.87,49.58,49.58,0,0,1-5.2.87l-.59-1.28,3.18-3.29c-3.71-3,2.32-5.59.88-7.92l-12.61-1.63c2-1.1,2.68-1.47,3.36-1.9s1.4-1,1.8-1.26c.38-.45.65-.62.64-.77-.6-6.71,6.79-9,8.14-15.13-1.53-2.51-3.12-5.49-7.47-4.1l-1.77-4.05c-2.81.85-5.63,2.65-8,2.15s-5.95-1.61-6-5.27l13.93-3.06,5.8-13.29L580.63,129l-5,1.87-.65-4.1c-.35,0-.83-.27-1-.12-2.72,2.27-5.52,2.16-8.17.06-2.4-1.89-4.62-4-6.92-6l.68-1.07,12.6,2.08c2.26-5.58,6.32-10.34,10.77-15-2.58-3.24-7.16-.69-9.59-3.62l-3.81,3.47c-4.52-1.55-8-3.91-9.92-9.25l7.48,2.95,1.49-3.86L572.69,99l-.59-4.22,2.19,1.11,6.33-8.34L575.53,84l-3.84,1.73,1.24-1.4-5.2-4.39-6.64,5.35-2.71-6.06L555,77.94l1.68-2.83,3.3,2,1.62-3.78L564.83,79c1.21-4.49,6.23-2.33,8.16-6.58L564.7,62.19l-2.7.31,2.82-5.91L561,53.18l6.79-5.55-3.08-3.85,2.25-6.06c-4-1.51-1.36-4.49-1.27-7.91-1.54,1.46-2.58,3.2-3.4,3.1-3-.34-3.32,1.48-3.74,3.57-.79,4-2.39,7.54-6.1,10.29V31.32l3.17,1.44,3.33-2.16-3.32-5.76,5.45-.66c-1.81-2.74-4.07-5.15-1.6-8.28l-5.08,1.93-2.1,5.63c-1.55-6.25,2.28-11.3,3.47-17.72L552,8.21,550.7,0h-.89V11.32l-1.4.82-1.58-4L545.68,9l3.64,14.42-1.44.38L546.53,18l-5.37-.35,2.27,13,3,2.82-4.12.49c-.94,2.41,3.66,5-.7,7.42l-6.71-5.5c1.79,5.83-.26,11.15,4.31,14.87l-4,4.75a17.78,17.78,0,0,1,11.23,7.6l2.85-1.59.29,3c-5.74,2-5.74,2-12-2.56L536,64.51a34.28,34.28,0,0,1-2.77-2.33,23.19,23.19,0,0,1-1.87-2.47L524.39,66l5.85,3.3-.9,3.78,3.2-.51,2,4.2,3.94-2.21-1.09,3.65c4.88,1.46,7.75-2.75,12.68-4.19l-8.72,10.36-5.16-3.69c-.8,1.25-5,2.9-9.78,3.93-.66,6.21,4.72,9.06,8.91,13.7h-6.67l.4,7.76c-2.45-4.73-4.81,0-6.91-1.53-1.85-1.36-3.67-2.75-5.93-4.43l2-3.32L514.6,94.4l5.2-3.34-1.44-13.13-5,2.18-6,9.8-1.47-.47-.76-10.33,7.46-.81-3.25-4.51,3.91-.66-.94-5.75c-3.69-1-5.16,2.65-8.12,4.94l4.31-11.5-3.29.46L504.19,56l-.77,0-.8,7.37-3.34-1.05,1.55,5.58-6.17.91,3,10.94-1.49.59.32,6.16-8-4.72c1.17,4.25,1,7.86,3.81,10.67l-2.95,3.18L503.18,102c-4.25,3.83-8,.91-11.76-1l-1.7,2-5.4-3.69L478.75,103c-.48,3.83,5,.44,4.76,4.54-.06,1.34,3.17,2.83,4.43,3.2,2.89.85,5.93,3.83,9.46.94,1.37-1.12,3.37-1.48,5.49-1.68l-8.26,7.15c-5.16-4.67-9.64.51-14.66-.26,0,5.52,4.62,6.66,7.82,9.89l-5.69.66.67,5.09c-3.55-3.19-5.79.33-9.07,1.13,3.22,2.15,6.65,4,9.58,6.51,2.49,2.11,4.41,4.91,6.68,7.52-4.86,4.36-10.51.08-15.27,3.76v-4.24l-5.39,2-5.65,8.43-1.55-.29L461,148.38l7.54-.7-2.92-4.18,3.62-.46-.78-5.42-8,4.38,4.32-10.12L461.26,133l-.83-4.84-.85-.08-1.27,6-2.51.42,2.84,8.33-1,.42L455.82,139h-5.07c.6,2.25,1.12,4.2,1.63,6.16.34,1.33,1,2.69.9,4-.14,1.63-.94,3.21-1.6,5.28l-6.33-3.41c.2,4.59.71,6.38,2.53,8.89l-2.23,2.81,14.51,6c-8,1.85-13.91-1-20.33-2.57l-5.29,3.07c3.07,2.24,6,4.71,9.23,6.65,3.94,2.35,8.22,2.24,12.49-.44l.41,1.52-6,4.45c-5-3.87-9.71.22-14.88,0,.3,4.86,4.81,5.23,7.36,8.24l-4.85.93.31,4.21c-3.18-2.57-5.45-.1-8.92.55,2.52,1.91,4.34,4,6.63,4.87,4,1.55,6.68,4.23,9,8-4.26,4.16-10.28-.16-14.84,3.46l.82,2.75c-4.88,3-4.88,3-8.31-.22,3.65-1.93,3.87-5.64,4.89-9.23-4.95.46-9.79,1.55-15.34-2l8.58-2.53-1.13-4.16c4.81-.93,6.76-4.91,9.49-8.72-2.18-2.45-3.78-5.4-7.73-3.68l-2.41-4.16c-5.63,4.42-10.13,3.47-13.85-2.29l14.14-2.71,5.93-11.73-5.39-3.67-4.86,1.45-1.16-3.9c-7.15,3.85-11-1.27-16.4-6.19l14.05,1.9c1.18-2.21,2.08-6.62,4.33-7.46,3.4-1.28,3.65-4.3,7.22-6.32l-8.76-1.76-.88-1.8-4.51,3.8c-4.23-1-7.59-2.94-9.89-7.56l7.36,1.86,1.83-3.25,2.67,2,9-9.52c-2.71-2.09-5.07-4.14-8.61-1.83l-5-4.25-6.42,3.57c-1.83-2.76-.7-7.15-5.46-6.83l2.22-2,2.57,2.33,1.45-3.52,3.18,3.78,8.61-4c-2.55-4.84-7-7.32-10.48-11.29l2.19-3.6L400.6,92.3l6.65-5.16-3-3.33,2-5c-.65-1.14-1.66-2.24-1.87-3.48-.18-1.05.55-2.26,1-3.92l-6.3,3.67-5.3,11.34-1.83-.37-.8-13.88c1.87,1,2.84,1.92,3.64,1.79,1.12-.19,2.11-1.18,3.52-2l-2.72-4.69,4.45-.91c-.35-2.42-4.58-4,1-7.45l-6.95,1.43-2.05,4.55c-.37-.27-.88-.53-.85-.65,1.13-4.48,2.31-8.94,3.65-14l-3.21,2.37-1.57-7.74L389,45V55.58l-3.94-3.7,4,14.72-1.32.37-1.87-6.47-5.21.4c2.11,4.23.46,9.54,4.88,13.82H382l1.07,8-7.91-5.3c-.6,4.88.9,9.07,3.2,12.89l-3,3.34,13.83,7.84c.51,1.58-1.68,1.81-3.21,1.69-2-.15-4-1.07-6-1.53a8.58,8.58,0,0,0-5.13.19l-4.22-3.75-6.77,5.34,5.8,2.78c0,1.43-1.31,3.75,2.48,3.59,1.13,0,1.69,3.81,4.51,2.3.78,2.27,2.07,3.34,4.54,2.12a11.72,11.72,0,0,1,6.36-1.46l-6.51,6.84L376.6,117,366,120.09c-.62,5.6,4.95,7.42,8.13,11.67h-5.49v6.15c-3.67-3.54-5.69,1.88-9.92-.72l1.81,2.6-9.92-.94-3.57-2.38L341.37,139l-5.94-5.49a16.89,16.89,0,0,0,3.43,0,20.21,20.21,0,0,0,3.3-1.39l2.11,2.35c1.73-.47,3.19-.8,4.58-1.28s2.58-1.08,4.88-2.07l-10.92-7.71,2-3-3.58-2.08,5.09-3.07-1.25-11.66c-4.5.42-6.63,3.29-8.27,7-.61,1.38-2.23,2.31-4.29,4.33L332,104.58l7.13-.71-3-4.36,3.77-.47-1.16-5.72-7.81,5,4.24-10.42-2.93.38-2-6.34-.92,8.47L326,89.1l1.2,4.94-6,1.21,3.25,9.9-1.72.59.32,5.21-7.95-3.9,2.81,10-1.9,2.34,13.7,5.67c-3.18,2.43-6.25,1.78-9.64.07-2.87-1.44-7.16,2-8.69-2.91l-6.12,4c3.21,2.44,6.1,5.21,9.5,7,2.18,1.16,4.85,2.86,7.78.93,1-.63,2.39-.54,4.26.27l-5,3.81c-4.57-1.47-5.8-1.4-15.23.89-.17,4.82,5,5,7.34,8.26l-5.09.65v4.39c-3.7-3.07-8,3.11-11.61-1.61l3.67-.7-.83-4.31-6.26.37,2.6-6L291.43,136,290,140.46l-2.84-2.34,1.26-7c-5.59.26-5.59.26-8.61,2.87l4.75-9-3.78.91-2.65-5.73-1.31,6.71-3.36-.31L275,131l-5.26.76,1.44,13-8-3.22c.65,3-.62,6.13,3,7.76l-1.84,2.84,11.5,5.24-.27,1-17.17-3.43-5.61,3,12.76,7.78-10.89,2.64c-.79,3.36,2.18,4.05,4,5.56l-2.33,4.28-7.39.74,1.73-4.67-8.46-4.51-1.73-3.22c-5.44,5.12-9.91,4.15-14.1-2.11l15-2.85a41.83,41.83,0,0,1,1.81-6.2,52.62,52.62,0,0,1,3.85-6.15l-5.9-4.52-4.82,2.11-.86-4.5c-7.54,4.58-11.31-1-15.35-6.23l12,1.76,11.36-15-9.93-2.37-3.57,3.1a15.66,15.66,0,0,1-10.08-8.74l7.8,3,1.13-4.18,3.64,2.23c-1.1-3.63,3.15-2.15,3.92-4.68.64-2.11,3.05-3.68,4.85-5.68L236,102.15l-3.79,1.53-4.92-4.62c-1.6,1.22-2.8,2.66-4.3,3.1-1,.28-3.4-1.34-3.38-1.39,1.51-3.82-2.84-2.87-3.8-4.64l1.48-2.81L220,95.73l1.94-3.3,2.85,3.85,9.28-4.39-9-10.38-2.71.19,2.86-5.62L221.4,72.9l6.35-5.14-2.94-4,2.24-5.18-1.12,0-.74-7.18L220,54.61,214.46,67.2l-1.62-.3-1-14.22h7.78L216.05,46l4.73-.49c-1.48-2.7-3.17-5.21.68-8.7l-7,2.54-1.88,5-1.17-.23c.45-2.43.73-4.91,1.4-7.28.75-2.62,1.86-5.13,2.06-8.28l-3,2.13L211,23.2H210l-.86,9.59-3.33-2.22c.24,5.24,4.64,9.5,2.6,15.62l-1.8-6.7h-5.12l2.28,12.25,2.6,2.12-3.53.82c-1.39,2.18,3.13,4.79-.92,7l-6.83-5c1.33,5.47.76,10.53,4.13,14.27l-3.09,3.36c.43.73.59,1.33.86,1.38,3.09.66,5.84,1.55,7.83,4.48.79,1.17,3.12,1.29,4.92,1.95-1,4.29-4.48,4.32-11.94-.95l-.6,3.4-5.88-5-6.49,5.3,5.49,3.53-.37,3.76,3-1.15,1.74,3.81,3.52-.59L197.54,98,208,94.12l.66.55L202,102.41,197.69,100l-10.93,3c-.32,6,4.94,8.28,8.47,12.62l-6.2.38.77,6.5-3.21-1.8-6.73,2.82c3.85,3.36,7.66,6.14,10.78,9.56,2.64,2.89,4.47,6.52,6.81,10.05-3.25,2-5.78,3.61-9.72,2.05-1.63-.65-4.34,1.4-7.5,2.57L190.39,161l-11.8,1,9.8,11.89,3.37-2.83,1.7,4.71c-1.15,1.06-2.07,2.45-3.34,3a76.37,76.37,0,0,0-15.68,8.85c-.52.37-1.59,0-3-.09l1.77-3-3.09-1.66,4.81-2.53-1.14-9.66-6,.29-2.22-3.4,2.84-.83-.86-4.68-7.69,3.73,4-8.71-3.13.81-1.38-5.06-1.78,6h-2.77c1,2.34,1.88,4.43,2.7,6.56.12.31-.18.79-.41,1.62L155,163.1h-1.78l-2.93-2.28-5,1.87-.65-4.1c-.35,0-.83-.27-1-.12-2.72,2.27-5.52,2.16-8.17.06-2.4-1.89-4.62-4-6.92-6l.68-1.07,12.6,2.08c2.26-5.58,6.32-10.34,10.77-15-2.58-3.24-7.16-.68-9.59-3.62l-3.81,3.47c-4.52-1.55-8-3.91-9.92-9.25l7.48,2.95,1.49-3.86,4.07,2.62-.59-4.22,2.19,1.11,6.33-8.34-5.08-3.52-3.84,1.73,1.24-1.4-5.2-4.39-6.64,5.35L128,111l-3.37-1.26,1.68-2.83,3.3,2,1.62-3.78,3.21,5.62c1.21-4.49,6.23-2.33,8.16-6.58L134.31,94l-2.7.31,2.82-5.91L130.57,85l6.79-5.55-3.08-3.85,2.25-6.06c-4-1.51-1.36-4.49-1.27-7.91-1.54,1.46-2.58,3.2-3.4,3.1-3-.34-3.32,1.48-3.74,3.57-.79,4-2.39,7.54-6.1,10.29V63.16l3.17,1.44,3.33-2.16-3.32-5.76,5.45-.66c-1.81-2.74-4.07-5.15-1.6-8.28L124,49.67l-2.1,5.63c-1.55-6.25,2.28-11.3,3.47-17.72L121.63,40l-1.32-8.21h-.89V43.16L118,44l-1.58-4-1.14.88,3.64,14.42-1.44.38-1.36-5.82-5.37-.35,2.27,13,3,2.82-4.12.49c-.94,2.41,3.66,5-.7,7.42l-6.71-5.5c1.79,5.83-.26,11.15,4.31,14.87l-4,4.75a17.79,17.79,0,0,1,11.23,7.6l2.85-1.59.29,3c-5.74,2-5.74,2-12-2.56l-1.61,2.52A34.19,34.19,0,0,1,102.81,94a23.23,23.23,0,0,1-1.87-2.47L94,97.8l5.85,3.3-.9,3.78,3.2-.51,2,4.2,3.94-2.2L107,110c4.88,1.46,7.75-2.75,12.68-4.19L111,116.17l-5.16-3.69c-.8,1.25-5,2.9-9.78,3.93-.66,6.21,4.72,9.06,8.91,13.7H98.27l.4,7.76c-2.45-4.73-4.81,0-6.91-1.53-1.85-1.36-3.67-2.75-5.92-4.43l2-3.32-3.61-2.36,5.2-3.34L88,109.76l-5,2.18-6,9.8-1.47-.47-.76-10.33,7.46-.81L79,105.63,82.9,105,82,99.21c-3.69-1-5.16,2.65-8.12,4.94l4.31-11.5-3.29.46L73.8,87.85l-.77,0-.8,7.37L68.9,94.19l1.55,5.58-6.17.91,3,10.94-1.49.59.32,6.16-8-4.72c1.17,4.25,1,7.86,3.81,10.67l-2.95,3.18,13.91,6.29c-4.25,3.83-8,.91-11.76-1l-1.7,2-5.4-3.69-5.57,3.73c-.48,3.83,5,.44,4.76,4.54-.06,1.34,3.17,2.83,4.43,3.2,2.89.85,5.93,3.83,9.46.94,1.37-1.12,3.37-1.48,5.49-1.68L64.24,149c-5.16-4.67-9.64.51-14.66-.26,0,5.52,4.62,6.66,7.82,9.89l-5.69.66.67,5.09c-3.55-3.19-5.79.33-9.07,1.13,3.22,2.14,6.65,4,9.58,6.51,2.49,2.11,4.41,4.91,6.68,7.52-4.86,4.36-10.51.08-15.27,3.76V179l-5.39,2-5.65,8.43-1.55-.28-1.14-8.93,7.54-.7-2.92-4.18,3.62-.46L38,169.46l-8,4.38,4.32-10.12-3.47,1.12L30,160l-.85-.08-1.27,6-2.51.42,2.84,8.33-1,.42-1.81-4.22H20.36c.6,2.25,1.12,4.2,1.63,6.16.34,1.33,1,2.69.9,4-.14,1.63-.94,3.21-1.6,5.28L15,182.88c.2,4.59.71,6.38,2.53,8.9l-2.23,2.81,14.51,6c-8,1.85-13.91-1-20.33-2.56l-5.29,3.07c3.07,2.24,6,4.71,9.23,6.65,3.94,2.35,8.22,2.24,12.49-.44l.41,1.52-6,4.45c-5-3.87-9.71.22-14.88,0,.3,4.86,4.81,5.23,7.36,8.24l-4.85.93.31,4.21c-3-2.4-5.14-.41-8.24.4v.69c2.18,1.75,3.88,3.53,6,4.34,4,1.55,6.68,4.23,9,8-4.26,4.16-10.28-.16-14.84,3.46L1,246.36,0,247v62.67H2560V189.24l-1-.57ZM48.8,227.89l-9.3-4.26.54-1.45c7.22,1.75,13.72-1.13,21.58-3.82C58,224,51.51,222.8,48.8,227.89ZM81,145.12c-1.93-.49-2.68-.93-1.12-3.29l2.85,1.83,1.75-2.52,3.3,3,3.4-2,7.49,5.55-3.53,2.14-5-3.42-6.62,2.85C82.29,147.22,81.83,145.34,81,145.12Zm14.34,17.12c-5,.57-9.47,2.43-12.06-3.5l7.14,1.52,1.71-3.88Zm.83,16.17c-4.19-2.23-10.23,3.12-13.43-3.85,5.7,1.06,11.33.64,16.86,1.25l.15,1.32C98.5,177.58,96.89,178.8,96.14,178.4Zm-.22-20.27,6.15-5.58,4.35,5.9C99.95,163,98.22,162.83,95.91,158.13Zm42.41,27.22a4.54,4.54,0,0,1-2.37-3.94l2.37-.52Zm6.17-3.24c-2.22,1.26-3.73-.46-5.39-1.39l6.58-1.45.76,1.63C145.85,181.28,145.19,181.72,144.5,182.11Zm6.79-5.56-.5-.24.89-2A6,6,0,0,1,151.28,176.56Zm1.58-5,.16-.37a3.42,3.42,0,0,0,.43.17A3,3,0,0,0,152.87,171.54Zm8.62,7.95-1.21-8.41h7.45C167.42,174.73,165.4,177.16,161.48,179.49Zm24.19,20.88c-3.09-.74-6.5.34-9.46-1.84-.63-.46-2.26.51-3.45.7-1.49.24-3,.35-5.44.62l2.42-5.93a8.27,8.27,0,0,0,6.81,1.61c4-.71,8.44.92,13.9,1.74,1.67-1,4.52-3.11,9-2.73C195.32,199,191.49,201.76,185.67,200.37Zm78-8.76c-1.62.41-3.5,1.56-4.8,1.09-4.4-1.57-8.14.39-12.14,1.37a14.54,14.54,0,0,1-12.25-2.41l8-2.71-1.2-3.83,6.57-4.79L264,190.07Zm43.69-22.89c0-2.35.6-4.4-.12-5.1-1.77-1.73-.77-2.85.53-3.33a4.5,4.5,0,0,1,3.88.46c1.81,1.68,3.12,3.88,5.3,6.74Zm51.57,15.4c-3.58,1.63-8.25,2.74-12.55-2.19,3.94-.69,7.46-1.51,11-1.88,4.27-.44,7.31,1.45,9.2,6.82Zm10.79-24.35c-3.78-1.56-6.25.64-9.57,1.61l3.8,7.63-8.16-.38L355,166.4c-5.76,2.37-10.6.3-15.92-4.29l12.69,1,10.87-10c-4.27-.56-7.73-2.64-12.24-.56-3.8,1.76-7.13-1.35-10.43-4.23,2.94-1.13,5.34,1.67,8-.24,1.84-1.31,5-.8,6.86-2.06,2.27-1.49,3.91-3.93,5.8-6,2.88,3.16,5.58,6.27,9.59,8.48,2.74,1.51,3.94,5.79,6.16,9.34C374,158.62,371.31,160.43,369.69,159.77Zm63.65,66.38,4,3.07,4.6-3.06-.46,5.2c-6.48,1.21-12.91,2-20.14-3.6Zm-5.07,19.73c6.19-.91,12.58-.88,18.66-2.91C439.28,249.73,435.31,250.44,428.27,245.88Zm50.91-49.83-9.3-4.26.54-1.45c7.22,1.75,13.72-1.13,21.58-3.82C488.37,192.14,481.9,191,479.18,196.05Zm32.16-82.77c-1.93-.49-2.68-.93-1.12-3.29l2.85,1.83,1.75-2.52,3.3,3,3.4-2L529,115.9,525.49,118l-5-3.42-6.62,2.85C512.67,115.39,512.22,113.5,511.35,113.28Zm14.34,17.12c-5,.57-9.47,2.43-12.06-3.5l7.14,1.52,1.71-3.88Zm.83,16.17c-4.19-2.23-10.23,3.12-13.43-3.85,5.7,1.06,11.33.64,16.86,1.25l.15,1.32C528.89,145.75,527.27,147,526.52,146.56Zm-.22-20.27,6.15-5.58,4.35,5.9C530.33,131.17,528.6,131,526.3,126.3Zm63.84,80.17a17,17,0,0,0,2.75-3.61l2.22,4.4ZM600,216l2.69-4-.89-1-5.85,1.41.57-3.52L610,211.45C607.17,215.85,603.89,217.43,600,216Zm56.68,2.09L649,220.83c1.89-5.37,4.93-7.26,9.2-6.82,3.57.37,7.09,1.19,11,1.88C664.92,220.82,660.25,219.71,656.67,218.08Zm3.86-17.71-.72,2.23-8.16.38,3.8-7.63c-3.31-1-5.78-3.17-9.57-1.61-1.62.67-4.26-1.15-6.77-1.94,2.22-3.56,3.42-7.83,6.16-9.34,4-2.21,6.7-5.32,9.59-8.48,1.89,2.07,3.53,4.51,5.8,6,1.91,1.26,5,.75,6.86,2.06,2.69,1.91,5.09-.89,8,.24-3.3,2.88-6.63,6-10.43,4.23-4.51-2.09-8,0-12.24.56l10.87,10,12.69-1C671.13,200.66,666.29,202.73,660.53,200.36Zm47.83-2.79c-.72.7-.12,2.75-.12,5.1l-9.6-1.23c2.18-2.86,3.5-5.06,5.3-6.74a4.5,4.5,0,0,1,3.88-.46C709.13,194.73,710.13,195.85,708.36,197.58ZM768.87,228c-4-1-7.74-2.94-12.14-1.37-1.31.47-3.19-.68-4.8-1.09l-.34-1.53,16.12-9.74,6.57,4.79-1.2,3.83,8,2.71A14.54,14.54,0,0,1,768.87,228Zm73.93,5.17c-1.19-.19-2.82-1.17-3.45-.7-3,2.17-6.36,1.1-9.46,1.84-5.82,1.38-9.65-1.39-13.83-5.83,4.52-.38,7.37,1.72,9,2.73,5.46-.81,9.89-2.44,13.9-1.74a8.27,8.27,0,0,0,6.81-1.61l2.42,5.93C845.81,233.55,844.3,233.44,842.81,233.2Zm11.28-19.75c-3.92-2.33-5.94-4.76-6.24-8.41h7.45Zm31.53,10.61c-2.72-.65-5.69.1-8.37-1.19v-3.76c3.82-.41,8,1.08,13.16,1.84,1.67-1,4.52-3.11,9-2.73C895.26,222.66,891.43,225.44,885.61,224.06Zm78-8.76c-1.62.41-3.5,1.56-4.8,1.09-4.4-1.57-8.15.39-12.14,1.37a14.53,14.53,0,0,1-12.25-2.41l8-2.7-1.2-3.84,6.57-4.79,16.12,9.74Zm43.69-22.89c0-2.35.6-4.4-.12-5.1-1.77-1.73-.77-2.85.53-3.33a4.5,4.5,0,0,1,3.88.46c1.81,1.68,3.12,3.88,5.3,6.74Zm51.57,15.4c-3.58,1.63-8.25,2.74-12.55-2.18,3.94-.69,7.46-1.51,11-1.88,4.27-.44,7.31,1.45,9.2,6.82Zm10.79-24.35c-3.78-1.56-6.25.64-9.57,1.61l3.8,7.63-8.16-.38-.72-2.23c-5.76,2.36-10.6.3-15.92-4.29l12.69,1,10.87-10c-4.27-.56-7.73-2.64-12.24-.56-3.8,1.76-7.13-1.35-10.43-4.23,2.94-1.13,5.34,1.67,8-.24,1.84-1.31,5-.8,6.86-2.06,2.27-1.5,3.91-3.94,5.8-6,2.88,3.16,5.58,6.27,9.59,8.48,2.73,1.51,3.94,5.79,6.16,9.34C1073.9,182.3,1071.26,184.12,1069.64,183.45Zm52.51,68.62c-.29-.2-.57-.4-.86-.62l.86-.12Zm0-22.81a15.74,15.74,0,0,1-9.6-2.55l8.58-2.53L1120,220a9.11,9.11,0,0,0,2.14-.72Zm13.51-18c-1,.76-2.15,1.37-3.06,1.94a28.56,28.56,0,0,0-3.85-.8c.25-.36.49-.72.75-1.08-.62-.7-1.2-1.44-1.8-2.1a12.12,12.12,0,0,0,10.86-.48C1137.6,209.57,1136.68,210.48,1135.66,211.24Zm43.88,33.06a63,63,0,0,1-7.25-2.83c-2-1.1-5.13,2.63-6.45-1.5-.06-.19-1.52-.05-2.29.11-4.82,1-8.66-.94-13.46-4.77l13,1,3.7-3.28,8.92,7.39,5.05-3.12Zm21.22-84.42-1.24-11.69,7.7.77A16.16,16.16,0,0,1,1200.76,159.88ZM1214.49,234l13.16-2.51,6.59-9.25,5.22,4.86,4.61-4.13c-1.28,8-1.76,8.44-9.09,10.51-3.41,1-6.62,2.61-10,3.63C1221.19,238.24,1217.56,238.09,1214.49,234Zm28.89,20.36h-20.73c.47-.44.94-.91,1.4-.91,2.52,0,4.9.87,5.12-3.43.07-1.44,4.41-4.28,5.75-3.77,5.32,2.05,9.44-1.81,14.15-2.2l.64,1.37-10,5.45Zm38.55-69.28c-4.87-1.31-8.4-2.75-10.66-7.23l7.54,2,1-3.4c.92,1.55,1.93,2.66,2.24,3.94S1282,183.22,1281.93,185.08Zm48.83,26.24-1.21-8.41H1337C1336.71,206.56,1334.68,209,1330.77,211.32ZM1355,232.21c-3.09-.74-6.5.34-9.46-1.83-.63-.46-2.26.51-3.45.7-1.49.24-3,.35-5.44.62l2.42-5.94a8.26,8.26,0,0,0,6.81,1.61c4-.71,8.44.92,13.9,1.74,1.67-1,4.52-3.11,9-2.73C1364.6,230.81,1360.77,233.59,1355,232.21Zm78-8.76c-1.62.41-3.5,1.56-4.8,1.09-4.4-1.57-8.14.39-12.14,1.37a14.54,14.54,0,0,1-12.25-2.41l8-2.71-1.2-3.83,6.57-4.79,16.12,9.74Zm43.69-22.89c0-2.36.6-4.4-.12-5.1-1.77-1.73-.77-2.85.53-3.33a4.5,4.5,0,0,1,3.88.46c1.81,1.68,3.12,3.88,5.3,6.74Zm51.57,15.4c-3.58,1.63-8.25,2.74-12.55-2.19,3.94-.69,7.46-1.51,11-1.88,4.27-.44,7.31,1.45,9.2,6.82ZM1539,191.6c-3.78-1.56-6.25.64-9.57,1.61l3.8,7.63-8.16-.38-.72-2.23c-5.76,2.36-10.6.3-15.92-4.29l12.69,1,10.87-10c-4.27-.56-7.73-2.64-12.24-.56-3.8,1.76-7.13-1.35-10.43-4.22,2.95-1.13,5.34,1.67,8-.24,1.84-1.31,4.95-.8,6.86-2.06,2.27-1.49,3.91-3.93,5.8-6,2.88,3.16,5.58,6.27,9.59,8.48,2.74,1.51,3.94,5.79,6.16,9.34C1543.23,190.45,1540.6,192.27,1539,191.6Zm109.49,36.28-9.3-4.26.54-1.45c7.22,1.75,13.72-1.13,21.58-3.82C1657.65,224,1651.18,222.8,1648.47,227.89Zm32.16-82.77c-1.93-.49-2.68-.93-1.12-3.29l2.85,1.83,1.75-2.52,3.3,3,3.4-2,7.49,5.55-3.53,2.14-5-3.42-6.62,2.85C1682,147.22,1681.5,145.34,1680.63,145.12ZM1695,162.23c-5,.57-9.47,2.43-12.06-3.5l7.14,1.52,1.71-3.88Zm.83,16.17c-4.19-2.23-10.23,3.12-13.43-3.85,5.7,1.06,11.33.64,16.86,1.25l.15,1.32C1698.17,177.58,1696.56,178.8,1695.81,178.4Zm-.22-20.27,6.15-5.58,4.35,5.9C1699.62,163,1697.89,162.83,1695.58,158.13ZM1738,185.36a4.54,4.54,0,0,1-2.37-3.94l2.37-.52Zm6.17-3.24c-2.22,1.26-3.73-.46-5.39-1.39l6.58-1.45.76,1.63C1745.52,181.28,1744.86,181.72,1744.17,182.11Zm6.79-5.56-.5-.24.89-2A6,6,0,0,1,1751,176.56Zm1.58-5,.16-.37a3.43,3.43,0,0,0,.43.17A3,3,0,0,0,1752.54,171.54Zm8.62,7.95-1.21-8.41h7.45C1767.09,174.73,1765.07,177.16,1761.15,179.49Zm24.19,20.88c-3.09-.74-6.5.34-9.46-1.84-.63-.46-2.26.51-3.45.7-1.49.24-3,.35-5.44.62l2.42-5.93a8.27,8.27,0,0,0,6.81,1.61c4-.71,8.44.92,13.9,1.74,1.67-1,4.52-3.11,9-2.73C1795,199,1791.16,201.76,1785.34,200.37Zm78-8.76c-1.62.41-3.5,1.56-4.8,1.09-4.4-1.57-8.15.39-12.14,1.37a14.54,14.54,0,0,1-12.25-2.41l8-2.71-1.2-3.83,6.57-4.79,16.12,9.74ZM1907,168.72c0-2.35.6-4.4-.12-5.1-1.77-1.73-.77-2.85.53-3.33a4.5,4.5,0,0,1,3.88.46c1.81,1.68,3.12,3.88,5.3,6.74Zm51.57,15.4c-3.58,1.63-8.25,2.74-12.55-2.19,3.94-.69,7.46-1.51,11-1.88,4.27-.44,7.31,1.45,9.2,6.82Zm10.79-24.35c-3.78-1.56-6.25.64-9.57,1.61l3.8,7.63-8.16-.38-.72-2.23c-5.76,2.37-10.6.3-15.92-4.29l12.69,1,10.87-10c-4.27-.56-7.73-2.64-12.24-.56-3.8,1.76-7.13-1.35-10.43-4.23,2.94-1.13,5.34,1.67,8-.24,1.84-1.31,5-.8,6.86-2.06,2.27-1.49,3.91-3.93,5.8-6,2.88,3.16,5.58,6.27,9.59,8.48,2.74,1.51,3.94,5.79,6.16,9.34C1973.62,158.62,1971,160.43,1969.36,159.77ZM2033,226.15l4,3.07,4.6-3.06-.46,5.2c-6.48,1.21-12.91,2-20.14-3.6Zm-5.07,19.73c6.19-.91,12.58-.88,18.66-2.91C2038.95,249.73,2035,250.44,2027.94,245.88Zm50.91-49.83-9.3-4.26.54-1.45c7.22,1.75,13.72-1.13,21.58-3.82C2088,192.14,2081.57,191,2078.85,196.05ZM2111,113.28c-1.93-.49-2.68-.93-1.12-3.29l2.85,1.83,1.75-2.52,3.3,3,3.4-2,7.49,5.55-3.53,2.15-5-3.42-6.62,2.85C2112.34,115.39,2111.89,113.5,2111,113.28Zm14.34,17.12c-5,.57-9.47,2.43-12.06-3.5l7.14,1.52,1.71-3.88Zm.83,16.17c-4.19-2.23-10.23,3.12-13.43-3.85,5.7,1.06,11.33.64,16.86,1.25l.15,1.32C2128.56,145.75,2126.94,147,2126.19,146.56ZM2126,126.3l6.15-5.58,4.35,5.9C2130,131.17,2128.27,131,2126,126.3Zm63.84,80.17a17,17,0,0,0,2.75-3.61l2.22,4.4Zm9.85,9.51,2.69-4-.89-1-5.85,1.41.57-3.52,13.49,2.58C2206.84,215.85,2203.55,217.43,2199.66,216Zm56.68,2.09-7.68,2.76c1.89-5.37,4.93-7.26,9.2-6.82,3.57.37,7.09,1.19,11,1.88C2264.59,220.82,2259.92,219.71,2256.34,218.08Zm3.86-17.71-.72,2.23-8.16.38,3.8-7.63c-3.31-1-5.78-3.17-9.57-1.61-1.62.67-4.26-1.15-6.77-1.94,2.21-3.56,3.42-7.83,6.16-9.34,4-2.21,6.7-5.32,9.59-8.48,1.89,2.07,3.53,4.51,5.8,6,1.91,1.26,5,.75,6.86,2.06,2.69,1.91,5.09-.89,8,.24-3.3,2.88-6.63,6-10.43,4.23-4.51-2.09-8,0-12.24.56l10.87,10,12.69-1C2270.8,200.66,2266,202.73,2260.2,200.36Zm47.83-2.79c-.72.7-.12,2.75-.12,5.1l-9.6-1.23c2.18-2.86,3.5-5.06,5.3-6.74a4.5,4.5,0,0,1,3.88-.46C2308.79,194.73,2309.8,195.85,2308,197.58ZM2368.54,228c-4-1-7.74-2.94-12.14-1.37-1.31.47-3.19-.68-4.8-1.09l-.34-1.53,16.12-9.74,6.57,4.79-1.2,3.83,8,2.71A14.54,14.54,0,0,1,2368.54,228Zm69.87,4.83c-2.81,1.63-6,.78-8.84,1.47-5.82,1.38-9.65-1.39-13.83-5.83,4.52-.38,7.37,1.72,9,2.73,4.91-.73,9-2.11,12.67-1.87a7.65,7.65,0,0,0,2,2.34ZM2454.33,205l-1.34.25-.08-.25Zm-4.46,2.37H2448a9.29,9.29,0,0,1-.5-2.37H2450C2450,205.84,2449.93,206.63,2449.87,207.41Zm3.91,5.89-.14.07c-.38-.23-.74-.46-1.09-.69l2-4.59Zm31.51,10.76c-2.72-.65-5.69.1-8.37-1.19v-3.76c3.82-.41,8,1.08,13.16,1.84a28.34,28.34,0,0,1,2.79-1.58c1.31.29,2.79.37,3.26,1.73C2493,223.76,2489.7,225.11,2485.28,224.06Zm61-6.3a14.53,14.53,0,0,1-12.25-2.41l8-2.7-1.2-3.84,6.57-4.79,2.94,1.78-3.07.69c0,4.73,3.8,6.51,6.91,9.34C2551.54,216,2549,217.1,2546.31,217.76Zm9.39-50.24,3.16,11.23-.79-.16-5.61,3,7.54,4.59V170.26Z"/></g></g></svg>